<?xml version="1.0" encoding="UTF-8"?>
<svg width="32px" height="32px" viewBox="0 0 32 32" version="1.1" xmlns="http://www.w3.org/2000/svg" xmlns:xlink="http://www.w3.org/1999/xlink">
    <title>编组 2</title>
    <g id="页面-1" stroke="none" stroke-width="1" fill="none" fill-rule="evenodd">
        <g id="首页--U卡-充值" transform="translate(-662, -546)">
            <g id="编组-5" transform="translate(32, 512)">
                <g id="编组-2" transform="translate(630, 34)">
                    <rect id="矩形" x="0" y="0" width="32" height="32"></rect>
                    <circle id="椭圆形" stroke="#B7B7B7" stroke-width="2" cx="16" cy="16" r="11.8"></circle>
                    <path d="M16,9.6 C16.5522847,9.6 17,10.0477153 17,10.6 L17,15 L21.4,15 C21.9522847,15 22.4,15.4477153 22.4,16 C22.4,16.5522847 21.9522847,17 21.4,17 L17,17 L17,21.4 C17,21.9522847 16.5522847,22.4 16,22.4 C15.4477153,22.4 15,21.9522847 15,21.4 L15,17 L10.6,17 C10.0477153,17 9.6,16.5522847 9.6,16 C9.6,15.4477153 10.0477153,15 10.6,15 L15,15 L15,10.6 C15,10.0477153 15.4477153,9.6 16,9.6 Z" id="形状结合" fill="#B7B7B7"></path>
                </g>
            </g>
        </g>
    </g>
</svg>