<?xml version="1.0" encoding="UTF-8"?>
<svg width="80px" height="80px" viewBox="0 0 80 80" version="1.1" xmlns="http://www.w3.org/2000/svg" xmlns:xlink="http://www.w3.org/1999/xlink">
    <title>编组 45</title>
    <defs>
        <circle id="path-1" cx="40" cy="40" r="40"></circle>
        <ellipse id="path-3" cx="36.1176471" cy="16.9411765" rx="36.1176471" ry="16.9411765"></ellipse>
        <linearGradient x1="50%" y1="0%" x2="50%" y2="100%" id="linearGradient-5">
            <stop stop-color="#F9DEDB" offset="0%"></stop>
            <stop stop-color="#F7DCD9" offset="100%"></stop>
        </linearGradient>
        <rect id="path-6" x="0" y="0" width="19.2941176" height="28.7058824" rx="9.64705882"></rect>
        <linearGradient x1="50%" y1="21.1234594%" x2="112.974941%" y2="93.089271%" id="linearGradient-8">
            <stop stop-color="#F1C1C0" offset="0%"></stop>
            <stop stop-color="#F7DCD9" offset="100%"></stop>
        </linearGradient>
        <linearGradient x1="50%" y1="0%" x2="50%" y2="100%" id="linearGradient-9">
            <stop stop-color="#F9DEDB" offset="0%"></stop>
            <stop stop-color="#F7DCD9" offset="100%"></stop>
        </linearGradient>
        <path d="M11.7004933,30.1208204 C8.14370146,30.1208204 3.75816898,25.8018712 2.40039783,24.3531577 C1.49521707,23.3873488 0.695084455,21.4409535 0,18.5139718 L0.266648203,0 L23.4009865,0 L23.4009865,17.6993065 C22.7221661,21.2723816 21.8591195,23.6481687 20.8118467,24.826668 C19.2409376,26.5944169 15.2572851,30.1208204 11.7004933,30.1208204 Z" id="path-10"></path>
        <linearGradient x1="50%" y1="0%" x2="50%" y2="100%" id="linearGradient-12">
            <stop stop-color="#624242" offset="0%"></stop>
            <stop stop-color="#331F1F" offset="100%"></stop>
        </linearGradient>
        <path d="M3.81085464,27.3463259 L1.17461123,26.5222341 C0.267239356,20.2114588 -0.114432804,16.4650115 0.0295947518,15.2828922 C0.173622308,14.1007729 1.12331251,13.1851605 2.87866536,12.5360549 C2.81290284,11.9886485 2.48850907,11.546223 1.90548406,11.2087784 C1.32245905,10.8713337 0.697162612,10.7813433 0.0295947518,10.938807 C0.410518381,10.6016607 0.792190541,10.3864022 1.17461123,10.2930314 C1.55703192,10.1996607 2.05699878,10.1996607 2.67451181,10.2930314 C2.27832345,9.56559876 2.09257984,8.92648809 2.11728096,8.37569942 C2.14198208,7.82491075 2.39577688,6.94660757 2.87866536,5.74078988 C2.91392895,7.18990275 3.01829517,8.17615333 3.19176404,8.69954161 C3.36523291,9.22292989 3.71577896,9.60923545 4.2434022,9.85845829 C4.58329758,7.01272203 5.71154855,5.38352927 7.62815511,4.97088002 C10.503065,4.35190615 13.0869284,5.91197556 18.0715256,4.66880225 C23.0561227,3.42562894 24.1444157,-1.43032863 28.7979879,0.412546465 C31.9003693,1.64112986 32.6924072,4.93462485 31.1741017,10.2930314 C32.0554157,11.7673777 32.2380944,13.1744825 31.7221378,14.5143458 C31.2061811,15.8542091 30.1335503,16.7581786 28.5042454,17.2262541 C28.9655508,17.2841933 29.1507311,18.3436519 29.0597862,20.4046299 C28.9688414,22.4656078 28.6512185,24.4075444 28.1069174,26.2304394 L26.8201401,26.5222341 C26.8109714,23.6444465 26.7268159,21.4799585 26.5676737,20.0287702 C26.4085314,18.5775819 25.8502588,17.833475 24.8928558,17.7964495 L5.568084,17.4652438 L4.2434022,18.6804209 L3.81085464,27.3463259 Z" id="path-13"></path>
        <linearGradient x1="50%" y1="0%" x2="70.5957135%" y2="90.3494169%" id="linearGradient-15">
            <stop stop-color="#E7CDD9" offset="0%"></stop>
            <stop stop-color="#F8DDDA" offset="100%"></stop>
        </linearGradient>
    </defs>
    <g id="页面-1" stroke="none" stroke-width="1" fill="none" fill-rule="evenodd">
        <g id="首页--U卡-详情-选择持卡人" transform="translate(-64, -240)">
            <g id="编组-31" transform="translate(32, 208)">
                <g id="编组-45" transform="translate(32, 32)">
                    <mask id="mask-2" fill="white">
                        <use xlink:href="#path-1"></use>
                    </mask>
                    <circle stroke="#FFFFFF" stroke-width="2" cx="40" cy="40" r="39"></circle>
                    <g mask="url(#mask-2)">
                        <g transform="translate(4, 7.5173)">
                            <g id="矩形" transform="translate(0, 47.5415)">
                                <mask id="mask-4" fill="white">
                                    <use xlink:href="#path-3"></use>
                                </mask>
                                <use id="蒙版" fill="#FFFFFF" xlink:href="#path-3"></use>
                                <path d="M34.0470867,-11.5294118 L38.5140754,-11.5294118 C44.7516443,-11.5294118 49.808193,-6.47286306 49.808193,-0.235294118 C49.808193,-0.210655112 49.8081124,-0.186016172 49.8079512,-0.161377694 L49.7747843,4.90627165 C49.7441782,9.58265813 46.8347238,13.7565017 42.4577342,15.4031618 L40.2458419,16.2352941 L40.2458419,16.2352941 L36.8009053,11.7749206 L33.7501008,16.7921237 L31.6284161,16.2878957 C26.6809756,15.1121142 23.1294295,10.7749232 22.9525027,5.69276558 L22.7598069,0.157653769 C22.5427878,-6.07613873 27.4203464,-11.3055548 33.6541389,-11.5225739 C33.7850719,-11.5271321 33.9160744,-11.5294118 34.0470867,-11.5294118 Z" fill="#000000" mask="url(#mask-4)"></path>
                            </g>
                            <g id="矩形" transform="translate(26.3529, 29.4239)">
                                <mask id="mask-7" fill="white">
                                    <use xlink:href="#path-6"></use>
                                </mask>
                                <use id="蒙版" fill="url(#linearGradient-5)" xlink:href="#path-6"></use>
                                <path d="M9.43997359,-2.82352941 L13.7421156,-2.82352941 C17.1791705,-2.82352941 20.3566405,-0.994855999 22.0833738,1.97696811 L27.1052221,10.619907 C29.1601953,14.1566541 27.9589802,18.689639 24.4222331,20.7446122 C22.952834,21.5983842 21.2345206,21.9208613 19.5555519,21.6579456 L10.084051,20.1747699 C4.04445331,19.229008 -0.364263385,13.9615605 -0.231628379,7.84980021 L-0.20481435,6.61422204 C-0.0909867228,1.36909711 4.19361368,-2.82352941 9.43997359,-2.82352941 Z" fill="url(#linearGradient-8)" mask="url(#mask-7)"></path>
                            </g>
                            <g id="路径-14" transform="translate(24.3071, 17.4636)">
                                <mask id="mask-11" fill="white">
                                    <use xlink:href="#path-10"></use>
                                </mask>
                                <use id="蒙版" fill="url(#linearGradient-9)" xlink:href="#path-10"></use>
                                <polygon fill="#F3CCCA" mask="url(#mask-11)" points="1.58254575 0.468966071 22.986979 2.14625996 21.3399202 -1.57879012 0.74540288 -0.647212363"></polygon>
                            </g>
                            <g id="路径-11" transform="translate(20.7969, 0)">
                                <mask id="mask-14" fill="white">
                                    <use xlink:href="#path-13"></use>
                                </mask>
                                <use id="蒙版" fill="url(#linearGradient-12)" xlink:href="#path-13"></use>
                                <path d="M33.0662999,3.26618376 C28.9980181,2.08826874 26.7524151,1.78195776 17.0940203,7.32736531 C7.43562547,12.8727729 3.1770364,8.53956868 1.95843342e-13,10.621064 C-1.48354079,11.5930338 -2.36180852,14.5892993 -2.63480319,19.6098606 L1.08273911,27.3463259 L30.1965815,29.115736 C38.0503279,13.6027204 39.0069007,4.98620299 33.0662999,3.26618376 Z" fill="#331F1F" mask="url(#mask-14)"></path>
                            </g>
                            <g id="编组-44" transform="translate(19.7647, 25.8945)">
                                <path d="M4.85971483,0.795979134 C3.14704701,-0.0544408754 1.9705743,-0.223422615 1.33029671,0.289033917 C0.369880329,1.05771871 -0.712330668,2.537739 0.6248692,5.22254311 C1.51633578,7.01241251 2.92795099,7.77958509 4.85971483,7.52406084 L4.85971483,0.795979134 Z" id="路径-12" fill="url(#linearGradient-15)"></path>
                                <path d="M4.85971483,2.88700063 C4.52795511,2.74284251 4.17904416,2.63489061 3.81298199,2.56314493 C3.44691981,2.49139926 2.88091846,2.42003463 2.11497793,2.34905104 C2.95462598,2.71495364 3.58034293,3.0056937 3.99212876,3.22127123 C4.40391459,3.43684876 4.69310995,3.72758882 4.85971483,4.09349142 L4.85971483,2.88700063 Z" id="路径-13" fill="#D2A4B4"></path>
                            </g>
                            <g id="编组-44" transform="translate(49.724, 29.6804) scale(-1, 1) translate(-49.724, -29.6804)translate(47.2941, 25.8945)">
                                <path d="M4.85971483,0.795979134 C3.14704701,-0.0544408754 1.9705743,-0.223422615 1.33029671,0.289033917 C0.369880329,1.05771871 -0.712330668,2.537739 0.6248692,5.22254311 C1.51633578,7.01241251 2.92795099,7.77958509 4.85971483,7.52406084 L4.85971483,0.795979134 Z" id="路径-12" fill="url(#linearGradient-15)"></path>
                                <path d="M4.85971483,2.88700063 C4.52795511,2.74284251 4.17904416,2.63489061 3.81298199,2.56314493 C3.44691981,2.49139926 2.88091846,2.42003463 2.11497793,2.34905104 C2.95462598,2.71495364 3.58034293,3.0056937 3.99212876,3.22127123 C4.40391459,3.43684876 4.69310995,3.72758882 4.85971483,4.09349142 L4.85971483,2.88700063 Z" id="路径-13" fill="#D2A4B4"></path>
                            </g>
                        </g>
                    </g>
                </g>
            </g>
        </g>
    </g>
</svg>