<?xml version="1.0" encoding="UTF-8"?>
<svg width="40px" height="40px" viewBox="0 0 40 40" version="1.1" xmlns="http://www.w3.org/2000/svg" xmlns:xlink="http://www.w3.org/1999/xlink">
    <title>编组 2</title>
    <g id="页面-1" stroke="none" stroke-width="1" fill="none" fill-rule="evenodd">
        <g id="首页-增值-卡片选择-充值" transform="translate(-32, -112)">
            <g id="编组-8" transform="translate(0, 88)">
                <g id="编组-2" transform="translate(32, 24)">
                    <rect id="矩形" x="0" y="0" width="40" height="40"></rect>
                    <g id="编组" transform="translate(10, 2)" fill="#666666" fill-rule="nonzero">
                        <path d="M18.6148737,31.9501826 C16.4700162,29.800617 14.3175112,27.6584832 12.1633437,25.5180536 C9.69140195,23.0616506 7.21494769,20.6097446 4.64183116,18.0580998 C5.25719224,17.4005439 5.75242608,16.8396497 6.28090986,16.3117967 C10.3095655,12.2878817 14.3464861,8.27225077 18.3754268,4.24866723 C18.8038758,3.82074225 19.2674747,3.40308934 19.591329,2.90146094 C20.0902678,2.12863979 20.0766829,1.2830619 19.4141544,0.602405603 C18.6790936,-0.152758923 17.7893732,-0.176474658 16.9354677,0.411164795 C16.5025537,0.708960805 16.138182,1.11075585 15.7622204,1.48490618 C11.0268614,6.19795072 6.29055238,10.9098592 1.56450332,15.6321818 C-0.509959387,17.7050618 -0.515326846,18.2521809 1.51196843,20.2786708 C6.23725748,25.0016561 10.971429,29.7158367 15.707263,34.4282659 C16.1361395,34.8549601 16.5695285,35.2906483 17.0602023,35.6390001 C17.8505055,36.2000836 18.6512586,36.0886527 19.339057,35.4329429 C20.0351204,34.7694225 20.0939253,33.9458089 19.6517488,33.145627 C19.4021844,32.6939862 18.9879379,32.3241909 18.6148737,31.9501826 Z" id="路径"></path>
                    </g>
                </g>
            </g>
        </g>
    </g>
</svg>