<?xml version="1.0" encoding="UTF-8"?>
<svg width="120px" height="120px" viewBox="0 0 120 120" version="1.1" xmlns="http://www.w3.org/2000/svg" xmlns:xlink="http://www.w3.org/1999/xlink">
    <title>编组 7</title>
    <defs>
        <linearGradient x1="50%" y1="0%" x2="51.4619146%" y2="100%" id="linearGradient-1">
            <stop stop-color="#36364A" stop-opacity="0.924388112" offset="0%"></stop>
            <stop stop-color="#666681" stop-opacity="0.355659965" offset="100%"></stop>
        </linearGradient>
        <filter x="-13.0%" y="-12.5%" width="125.9%" height="135.0%" filterUnits="objectBoundingBox" id="filter-2">
            <feOffset dx="0" dy="2" in="SourceAlpha" result="shadowOffsetOuter1"></feOffset>
            <feGaussianBlur stdDeviation="2" in="shadowOffsetOuter1" result="shadowBlurOuter1"></feGaussianBlur>
            <feColorMatrix values="0 0 0 0 0   0 0 0 0 0   0 0 0 0 0  0 0 0 0.5 0" type="matrix" in="shadowBlurOuter1" result="shadowMatrixOuter1"></feColorMatrix>
            <feMerge>
                <feMergeNode in="shadowMatrixOuter1"></feMergeNode>
                <feMergeNode in="SourceGraphic"></feMergeNode>
            </feMerge>
        </filter>
    </defs>
    <g id="页面-1" stroke="none" stroke-width="1" fill="none" fill-rule="evenodd">
        <g id="首页-卡片列表--U卡" transform="translate(-314, -784)">
            <g id="编组-10" transform="translate(32, 760)">
                <g id="编组-7" transform="translate(282, 24)">
                    <rect id="矩形" fill="url(#linearGradient-1)" x="0" y="0" width="120" height="120" rx="36"></rect>
                    <g id="编组" filter="url(#filter-2)" transform="translate(34, 40)" fill="#FFFFFF" fill-rule="nonzero">
                        <path d="M34.088,28.0215385 L38.092,28.0215385 L38.092,32.5733333 L34.088,32.5733333 L34.088,28.0205128 L34.088,28.0215385 Z M39.023,28.0215385 L43.027,28.0215385 L43.027,32.5733333 L39.023,32.5733333 L39.023,28.0205128 L39.023,28.0215385 Z M44.173,28.0215385 L48.178,28.0215385 L48.178,32.5733333 L44.174,32.5733333 L44.174,28.0205128 L44.173,28.0215385 Z M0,35.1620513 C0,37.8184615 2.18600001,40 4.85899998,40 L49.13,40 C51.803,40 54,37.8287179 54,35.1620513 L54,14.8205128 L0,14.8205128 L0,35.1620513 Z M49.13,0 L4.86000001,0 C2.18600001,0 0,2.18153848 0,4.84820512 L0,10.2482051 L54,10.2482051 L54,4.84820512 C54,2.18153848 51.814,0 49.13,0 Z" id="形状"></path>
                    </g>
                </g>
            </g>
        </g>
    </g>
</svg>