<?xml version="1.0" encoding="UTF-8"?>
<svg width="36px" height="36px" viewBox="0 0 36 36" version="1.1" xmlns="http://www.w3.org/2000/svg" xmlns:xlink="http://www.w3.org/1999/xlink">
    <title>编组 3</title>
    <g id="页面-1" stroke="none" stroke-width="1" fill="none" fill-rule="evenodd">
        <g id="首页-卡片列表--U卡" transform="translate(-507, -519)">
            <g id="编组-4" transform="translate(32, 376)">
                <g id="编组-12" transform="translate(36, 143)">
                    <g id="编组-3" transform="translate(439, 0)">
                        <rect id="矩形" x="0" y="0" width="36" height="36"></rect>
                        <g id="编组" transform="translate(6, 6)" fill="#FFFFFF" fill-rule="nonzero">
                            <path d="M21.4752685,0 C22.8047758,0.000273660376 23.9062611,1.0315448 23.993979,2.35815526 L24.0000002,2.52473132 L24.0000002,16.7920723 C23.9997261,18.1215796 22.968455,19.2230649 21.6418446,19.3107828 L21.4752685,19.3168036 L19.3168039,19.3168036 L19.3168039,21.4752683 C19.3165302,22.8047756 18.2852591,23.9062609 16.9586487,23.9939788 L16.7920726,24 L2.5247317,24 C1.85495742,24 1.21263002,23.7338642 0.739122198,23.2601682 C0.265614377,22.7864721 -0.000265809987,22.144039 1.99412169e-07,21.4742648 L1.99412169e-07,7.20692382 C0.000554451245,5.81294511 1.13075289,4.68319587 2.5247317,4.68319598 L4.68219286,4.6821925 L4.68219286,2.52473132 C4.68246652,1.19522402 5.71373765,0.0937386826 7.0403481,0.00602082583 L7.20792764,0 L21.476272,0 L21.4752685,0 Z M21.4752685,1.75607308 L7.20692416,1.75607308 C6.82308061,1.75652768 6.49840798,2.04008082 6.44629368,2.42037042 L6.43926937,2.52473132 L6.43826592,4.6821925 L16.7920726,4.6821925 C18.1215799,4.68246616 19.2230652,5.7137373 19.310783,7.04034776 L19.3168039,7.20692382 L19.3168039,17.5607306 L21.4752685,17.5607306 C21.8594936,17.5607306 22.1847361,17.2771005 22.2369025,16.8964332 L22.2439268,16.7920723 L22.2439268,2.52473132 C22.2439268,2.14050621 21.9602967,1.81526368 21.5796294,1.76309735 L21.474265,1.75607308 L21.4752685,1.75607308 Z" id="形状"></path>
                        </g>
                    </g>
                </g>
            </g>
        </g>
    </g>
</svg>