<?xml version="1.0" encoding="UTF-8"?>
<svg width="36px" height="36px" viewBox="0 0 36 36" version="1.1" xmlns="http://www.w3.org/2000/svg" xmlns:xlink="http://www.w3.org/1999/xlink">
    <title>编组 3</title>
    <g id="页面-1" stroke="none" stroke-width="1" fill="none" fill-rule="evenodd">
        <g id="首页-卡片列表--U卡" transform="translate(-659, -519)">
            <g id="编组-4" transform="translate(32, 376)">
                <g id="编组-12" transform="translate(36, 143)">
                    <g id="编组-3" transform="translate(591, 0)">
                        <rect id="矩形" x="0" y="0" width="36" height="36"></rect>
                        <g id="编组" transform="translate(4, 9)" fill-rule="nonzero">
                            <path d="M14,0 C6.77965217,0 0,4.5084 0,9 C0,13.4916 6.77965217,18 14,18 C21.2203478,18 28,13.4916 28,9 C28,4.5084 21.2203478,0 14,0 Z" id="路径" fill="#FFFFFF"></path>
                            <path d="M14,3.9 C12.1515389,3.9 10.4434904,4.87205448 9.5192598,6.44999998 C8.59502924,8.02794548 8.59502924,9.97205452 9.5192598,11.55 C10.4434904,13.1279455 12.1515389,14.1 14,14.1 C16.8574732,14.1 19.173913,11.8166522 19.173913,9 C19.173913,6.18334781 16.8574732,3.9 14,3.9 L14,3.9 Z M14,5.7 C15.8489533,5.7 17.3478261,7.17746033 17.3478261,9 C17.3478261,10.8225397 15.8489533,12.3 14,12.3 C12.1510467,12.3 10.6521739,10.8225397 10.6521739,9 C10.6521739,7.17746033 12.1510467,5.7 14,5.7 L14,5.7 Z" id="形状" fill="#43161E"></path>
                        </g>
                    </g>
                </g>
            </g>
        </g>
    </g>
</svg>