<?xml version="1.0" encoding="UTF-8"?>
<svg width="36px" height="36px" viewBox="0 0 36 36" version="1.1" xmlns="http://www.w3.org/2000/svg" xmlns:xlink="http://www.w3.org/1999/xlink">
    <title>编组 3</title>
    <g id="页面-1" stroke="none" stroke-width="1" fill="none" fill-rule="evenodd">
        <g id="首页-卡片列表--U卡" transform="translate(-614, -519)">
            <g id="编组-4" transform="translate(32, 376)">
                <g id="编组-12" transform="translate(36, 143)">
                    <g id="编组-3" transform="translate(546, 0)">
                        <rect id="矩形" x="0" y="0" width="36" height="36"></rect>
                        <g id="编组" transform="translate(4, 7)" fill="#FFFFFF" fill-rule="nonzero">
                            <path d="M28,10.3958699 C28,14.9183876 21.2203478,19.4578209 14,19.4578209 C11.3156522,19.4578209 8.69278261,18.8307339 6.45643478,17.8097541 L10.3052174,13.9904438 C11.6070005,15.3129144 13.5245771,15.8387452 15.3257822,15.3671647 C17.1269872,14.8955841 18.5337198,13.4994029 19.0088643,11.711708 C19.4840087,9.92401304 18.954204,8.02081937 17.6217391,6.72880044 L21.4431304,2.93607188 C25.276087,4.65663431 28,7.52927277 28,10.3958699 Z M14,1.33391895 C15.932,1.33391895 17.8329565,1.65894092 19.5805217,2.22199015 L16.0823478,5.69392563 C14.1289473,4.84005555 11.8477182,5.26439127 10.3384254,6.76236345 C8.82913256,8.26033564 8.40159002,10.5244541 9.26191304,12.463203 L4.76852174,16.9216829 C1.904,15.194475 0,12.793058 0,10.3958699 C0,5.87335226 6.77965217,1.33391895 14,1.33391895 Z M17.3478261,10.3958699 C17.3477596,11.7489903 16.5209628,12.9669133 15.2574371,13.4751428 C13.9939114,13.9833722 12.546073,13.6803783 11.5968696,12.709084 L16.3306957,8.01076443 C16.9576522,8.6148945 17.3478261,9.46007246 17.3478261,10.3958699 L17.3478261,10.3958699 Z M14,7.07315453 C14.216087,7.07315453 14.4273043,7.093695 14.6324348,7.13235932 L10.7118261,11.0229569 C10.5233512,10.0495968 10.7825439,9.0435469 11.4186466,8.27945114 C12.0547492,7.51535538 13.0013375,7.07300364 14,7.07315453 Z" id="形状"></path>
                            <path d="M25.3690162,0.320388345 L25.3690162,0.320388345 C25.7994291,0.747572805 25.7994291,1.17475727 25.3690162,1.60194175 L5.13961355,21.6796117 C4.70920073,22.1067961 4.2787879,22.1067961 3.84837507,21.6796117 L3.84837507,21.6796117 C3.41796225,21.2524272 3.41796225,20.8252427 3.84837507,20.3980582 L24.0777778,0.320388345 C24.5081906,-0.106796115 24.9386034,-0.106796115 25.3690162,0.320388345 Z" id="路径"></path>
                        </g>
                    </g>
                </g>
            </g>
        </g>
    </g>
</svg>