<?xml version="1.0" encoding="UTF-8"?>
<svg width="32px" height="32px" viewBox="0 0 32 32" version="1.1" xmlns="http://www.w3.org/2000/svg" xmlns:xlink="http://www.w3.org/1999/xlink">
    <title>编组</title>
    <g id="页面-1" stroke="none" stroke-width="1" fill="none" fill-rule="evenodd">
        <g id="首页--U卡-详情-选择持卡人-新增持卡人" transform="translate(-306, -1010)" fill="#FFFFFF" fill-rule="nonzero">
            <g id="编组-5" transform="translate(32, 928)">
                <g id="编组" transform="translate(274, 82)">
                    <path d="M0,16 C0,7.16359375 7.16359375,0 16,0 C24.8364062,0 32,7.16359375 32,16 C32,24.8364062 24.8364062,32 16,32 C7.16359375,32 0,24.8364062 0,16 Z M13.1034375,22.0821875 C13.5214762,22.5132984 14.2075161,22.5309632 14.6471875,22.1219375 L25.132125,12.3740625 C25.5785264,11.9592017 25.6040951,11.2610108 25.1892344,10.8146094 C24.7743736,10.368208 24.0761827,10.3426393 23.6297813,10.7575 L13.9696875,19.8058125 L9.43446875,15.129375 C9.16066358,14.8433211 8.75457518,14.7259112 8.37036515,14.821717 C7.98615513,14.9175227 7.68273754,15.2118536 7.57529752,15.592974 C7.46785749,15.9740943 7.57286967,16.3835639 7.85046875,16.6659375 L13.104,22.0821875 L13.1034375,22.0821875 Z" id="形状"></path>
                </g>
            </g>
        </g>
    </g>
</svg>