<?xml version="1.0" encoding="UTF-8"?>
<svg width="336px" height="224px" viewBox="0 0 336 224" version="1.1" xmlns="http://www.w3.org/2000/svg" xmlns:xlink="http://www.w3.org/1999/xlink">
    <title>Group 467</title>
    <defs>
        <linearGradient x1="3.88578059e-14%" y1="27.7777778%" x2="99.999997%" y2="72.2222209%" id="linearGradient-1">
            <stop stop-color="#D3EBF5" offset="0%"></stop>
            <stop stop-color="#F6EDED" offset="49.4791657%"></stop>
            <stop stop-color="#D6EBF3" offset="100%"></stop>
        </linearGradient>
    </defs>
    <g id="页面-1" stroke="none" stroke-width="1" fill="none" fill-rule="evenodd">
        <g id="首页-卡片申请-确认申办信息-实体卡" transform="translate(-32, -1496)" fill-rule="nonzero">
            <g id="编组-3" transform="translate(32, 1444)">
                <g id="Group-467" transform="translate(0, 52)">
                    <rect id="Rectangle-288" stroke="#8DD0F4" stroke-width="2.26845638" fill="url(#linearGradient-1)" x="1.13422819" y="1.13422819" width="333.731544" height="221.731544" rx="9.07382584"></rect>
                    <g id="Frame-1567" transform="translate(222.3087, 45.3691)" fill="#BBC2D2">
                        <path d="M35.8738411,0 C37.588772,0 39.2855563,0.195087243 40.9732661,0.589798626 C42.6025698,0.962983551 44.1918544,1.4932584 45.7188156,2.17318118 C47.1932933,2.83557047 48.5089783,3.59323495 49.665876,4.43710066 C50.8182369,5.28096645 51.7165374,6.12936889 52.3698444,6.97323469 C53.907838,8.90595944 55.0284391,11.0337713 55.7407252,13.3566706 C56.4162746,15.5323652 56.9199008,17.7577593 57.2469599,20.0123225 C57.5418555,22.4259601 57.6915736,24.8713566 57.6915736,27.348511 C58.1091831,27.6550753 58.4443134,28.060354 58.6669977,28.5281085 C58.9029142,28.9500414 59.0934612,29.4899323 59.2431774,30.1568586 C59.3883567,30.8192479 59.4065046,31.6358919 59.2885464,32.6022543 C59.1705882,33.8725898 58.9165232,34.8797841 58.5308905,35.6329115 C58.1497948,36.3905759 57.7187927,36.9758394 57.2469599,37.4023092 C56.7668052,37.8556458 56.191884,38.1965765 55.5637902,38.4004307 C55.2643578,39.4212361 54.9739953,40.3875965 54.6745629,41.294979 C54.3772604,42.0830252 54.0364718,42.8539732 53.6537696,43.6042685 C53.2726739,44.357396 52.8416772,44.9471947 52.3698444,45.3691275 C51.2447046,46.2765101 50.3282562,47.0477834 49.6205069,47.6784143 C48.9082209,48.3135821 48.4409278,49.384294 48.2004745,50.895086 C48.0190003,51.8024687 47.964556,52.7189268 48.0189983,53.6535308 C48.0825142,54.5926717 48.3365793,55.527276 48.7766541,56.4664169 C49.2212658,57.396484 49.9017961,58.2902565 50.8182406,59.1341223 C51.7346852,59.9779881 53.0186111,60.7356529 54.6745629,61.3980421 C56.1535774,62.0014515 57.7641618,62.5458783 59.5108505,63.0313281 C61.2530026,63.5122409 62.9543238,64.0702811 64.6102755,64.7009119 C66.2616905,65.3360797 67.7270946,66.120966 68.9974137,67.0601069 C70.2677329,67.9947109 71.1751006,69.2741185 71.7059126,70.9074071 C72.0008081,71.8737695 72.2231152,73.0624412 72.3682945,74.4824948 C72.5180107,75.9025486 72.590604,77.3362164 72.590604,78.7834916 C72.590604,80.2353037 72.486256,81.591836 72.2820976,82.8576347 C72.0734023,84.1279702 71.7648919,85.094334 71.3475013,85.7612601 C71.0526057,86.1786561 70.2132876,86.6005886 68.8204733,87.0270584 C67.4321959,87.4489913 65.7172689,87.8573168 63.6756846,88.2520282 C61.6341001,88.6422027 59.3611326,88.987005 56.8477154,89.2909782 C54.3342981,89.5904144 51.8072698,89.8490221 49.2666314,90.0622569 C46.7259931,90.2709549 44.2851702,90.4342842 41.9486903,90.5613177 C39.6122104,90.6792774 37.5887704,90.738255 35.8693026,90.738255 C34.1589086,90.738255 32.1626923,90.6792731 29.8851915,90.5567764 C27.5324484,90.430297 25.1820207,90.2639192 22.8349209,90.0577156 C20.4228051,89.847101 18.0135333,89.6051142 15.6077138,89.331812 C13.4290314,89.0897264 11.2554387,88.8038428 9.08825435,88.4743352 C7.42311489,88.2245391 5.76632754,87.921926 4.12039836,87.5669529 C2.75934207,87.2675167 1.90187724,86.9635438 1.54800267,86.6595707 C0.958211651,86.1786579 0.499988679,84.6996237 0.173335189,82.2270062 C-0.153318301,79.7498519 -0.0172126132,76.551326 0.572578404,72.6268965 C0.867473955,70.3947355 1.74308676,68.6888595 3.19034325,67.5092622 C4.64213657,66.3296648 6.32077271,65.3995965 8.24439885,64.7009119 C10.168025,64.0067643 12.1642423,63.3897431 14.2330478,62.8453136 C16.3018533,62.300884 18.1347419,61.5205391 19.7317146,60.4906599 C20.9702758,59.7057739 21.9184788,58.952646 22.567249,58.22674 C23.220556,57.5008339 23.6923872,56.7794657 23.9872828,56.0535595 C24.2821783,55.3276534 24.4318937,54.5745257 24.4318937,53.7896397 C24.4318937,53.0047538 24.4001347,52.129125 24.3411556,51.1627627 C24.2231974,49.7744674 23.7513649,48.6765372 22.9211205,47.8598929 C22.095413,47.0432486 21.1789714,46.2129933 20.1717897,45.3691275 C19.6445411,44.8682851 19.2233446,44.2665697 18.9332282,43.5997326 C18.5778238,42.8446449 18.2524277,42.0757913 17.957804,41.294979 C17.6629085,40.3875964 17.3680145,39.4212344 17.0685822,38.3958922 C16.6220735,38.2574636 16.202994,38.0425492 15.8300206,37.7607251 C15.4009338,37.3789956 15.0131698,36.9532087 14.6731229,36.4903883 C14.1816287,35.7784184 13.8220411,34.9839393 13.6114977,34.1448063 C13.2743498,33.2492271 13.1380565,32.2905149 13.2122545,31.3364561 C13.3029915,30.4925903 13.4617823,29.7666849 13.6976987,29.1632756 C13.9582081,28.4614615 14.3509386,27.8161415 14.8545964,27.2623076 C14.7954563,24.9624561 14.9137661,22.6614689 15.2084719,20.3798115 C15.4810812,18.2684346 15.9102381,16.1802409 16.4923998,14.1324839 C17.0690331,11.9918685 18.0147878,9.96829872 19.2871037,8.15283219 C20.4122436,6.4651006 21.6689486,5.09041607 23.0526891,4.0333154 C24.4455034,2.97621473 25.8655397,2.14595975 27.317333,1.54255035 C28.7600527,0.939140945 30.2118456,0.530818826 31.6591021,0.317583887 C33.1108955,0.108885929 34.5127849,0.00453690613 35.8738411,0.00453690613 L35.8738411,0 Z" id="Vector"></path>
                    </g>
                    <rect id="Rectangle-291" fill="#BBC2D2" x="34.0268456" y="54.442953" width="34.0268456" height="13.6107383"></rect>
                    <rect id="Rectangle-294" fill="#BBC2D2" x="79.3959732" y="54.442953" width="56.7114094" height="13.6107383"></rect>
                    <rect id="Rectangle-292" fill="#BBC2D2" x="34.0268456" y="83.9328859" width="34.0268456" height="13.6107383"></rect>
                    <rect id="Rectangle-295" fill="#BBC2D2" x="79.3959732" y="83.9328859" width="90.738255" height="13.6107383"></rect>
                    <rect id="Rectangle-293" fill="#BBC2D2" x="34.0268456" y="111.154362" width="34.0268456" height="13.6107383"></rect>
                    <rect id="Rectangle-296" fill="#BBC2D2" x="79.3959732" y="111.154362" width="90.738255" height="13.6107383"></rect>
                    <rect id="Rectangle-297" fill="#BBC2D2" x="34.0268456" y="170.134228" width="269.946309" height="13.6107383"></rect>
                </g>
            </g>
        </g>
    </g>
</svg>