<?xml version="1.0" encoding="UTF-8"?>
<svg width="336px" height="224px" viewBox="0 0 336 224" version="1.1" xmlns="http://www.w3.org/2000/svg" xmlns:xlink="http://www.w3.org/1999/xlink">
    <title>Group 468</title>
    <defs>
        <linearGradient x1="3.88578059e-14%" y1="27.7777778%" x2="99.999997%" y2="72.2222209%" id="linearGradient-1">
            <stop stop-color="#D3EBF5" offset="0%"></stop>
            <stop stop-color="#F6EDED" offset="49.4791657%"></stop>
            <stop stop-color="#D6EBF3" offset="100%"></stop>
        </linearGradient>
    </defs>
    <g id="页面-1" stroke="none" stroke-width="1" fill="none" fill-rule="evenodd">
        <g id="首页-卡片申请-确认申办信息-实体卡" transform="translate(-382, -1496)" fill-rule="nonzero">
            <g id="编组-3" transform="translate(32, 1444)">
                <g id="Group-468" transform="translate(350, 52)">
                    <rect id="Rectangle-289" stroke="#8DD0F4" stroke-width="2.26845638" fill="url(#linearGradient-1)" x="1.13422819" y="1.13422819" width="333.731544" height="221.731544" rx="9.07382584"></rect>
                    <rect id="Rectangle-298" fill="#BBC2D2" x="154.255034" y="54.442953" width="149.718121" height="13.6107383"></rect>
                    <rect id="Rectangle-299" fill="#BBC2D2" x="154.255034" y="81.6644295" width="149.718121" height="29.4899329"></rect>
                    <rect id="Rectangle-300" fill="#BBC2D2" x="38.5637584" y="154.255034" width="269.946309" height="13.6107383"></rect>
                    <rect id="Rectangle-301" fill="#BBC2D2" x="38.5637584" y="183.744966" width="269.946309" height="13.6107383"></rect>
                    <g id="Frame-1568" transform="translate(38.5638, 47.6376)">
                        <circle id="Ellipse-112" stroke="#F1C6C7" stroke-width="9.0738255" fill="#E79794" cx="40.8322148" cy="40.8322148" r="36.295302"></circle>
                        <path d="M71.3108806,68.6898428 C63.7875528,76.6732959 53.0697537,81.6644339 41.1752039,81.6644339 C29.0339932,81.6644339 18.1188522,76.4641414 10.5756344,68.1893345 L4.53691275,81.7988223 C15.0684723,86.0269531 27.5073062,88.469803 40.8322148,88.469803 C54.1571234,88.469803 66.5959551,86.0269531 77.1275168,81.7988223 L71.3108806,68.6898428 Z" id="Subtract" fill="#F1C6C7"></path>
                        <polygon id="Star-3" fill="#EFC7C5" points="40.8322148 13.6107383 42.7122597 17.8284475 47.3045054 18.3131327 43.8741914 21.4045055 44.8323104 25.9217667 40.8322148 23.6146309 36.8321192 25.9217667 37.7902382 21.4045055 34.3599241 18.3131327 38.9521698 17.8284475"></polygon>
                        <polygon id="Star-4" fill="#EFC7C5" points="57.8456376 27.2214765 58.78566 29.3303311 61.0817829 29.5726737 59.3666259 31.1183601 59.8456854 33.3769907 57.8456376 32.2234228 55.8455898 33.3769907 56.3246493 31.1183601 54.6094923 29.5726737 56.9056151 29.3303311"></polygon>
                        <polygon id="Star-5" fill="#EFC7C5" points="46.5033557 34.0268456 47.4433782 36.1357003 49.739501 36.3780428 48.024344 37.9237293 48.5034035 40.1823598 46.5033557 39.0287919 44.5033079 40.1823598 44.9823674 37.9237293 43.2672104 36.3780428 45.5633332 36.1357003"></polygon>
                        <polygon id="Star-6" fill="#EFC7C5" points="32.8926174 34.0268456 33.8326399 36.1357003 36.1287628 36.3780428 34.4136057 37.9237293 34.8926653 40.1823598 32.8926174 39.0287919 30.8925696 40.1823598 31.3716291 37.9237293 29.6564721 36.3780428 31.952595 36.1357003"></polygon>
                        <polygon id="Star-7" fill="#EFC7C5" points="21.5503356 27.2214765 22.490358 29.3303311 24.7864809 29.5726737 23.0713239 31.1183601 23.5503834 33.3769907 21.5503356 32.2234228 19.5502878 33.3769907 20.0293473 31.1183601 18.3141902 29.5726737 20.6103131 29.3303311"></polygon>
                        <rect id="Rectangle-298" fill="#EFC7C5" x="24.9530201" y="56.7114094" width="31.7583893" height="9.0738255"></rect>
                        <rect id="Rectangle-299" fill="#EFC7C5" x="20.4161074" y="61.2483221" width="40.8322148" height="4.53691275"></rect>
                    </g>
                </g>
            </g>
        </g>
    </g>
</svg>