<?xml version="1.0" encoding="UTF-8"?>
<svg width="40px" height="40px" viewBox="0 0 40 40" version="1.1" xmlns="http://www.w3.org/2000/svg" xmlns:xlink="http://www.w3.org/1999/xlink">
    <title>编组 5</title>
    <g id="页面-1" stroke="none" stroke-width="1" fill="none" fill-rule="evenodd">
        <g id="首页-增值-卡片选择-充值" transform="translate(-678, -112)">
            <g id="编组-5" transform="translate(678, 112)">
                <rect id="矩形" x="0" y="0" width="40" height="40"></rect>
                <g id="编组" transform="translate(2, 6)" fill-rule="nonzero">
                    <path d="M34.9063432,16.8345112 C34.9063432,17.9387333 34.7879994,19.0914776 34.5517658,20.2446754 C34.4828455,20.56982 34.3150788,20.8360124 34.0883672,21.0427989 C33.8222077,21.2890382 33.4676306,21.4273494 33.1030782,21.4273494 C33.0636304,21.4273494 33.0241826,21.4273494 32.9847347,21.4173728 C32.9257897,21.4173728 32.8663913,21.4073963 32.7974709,21.3974197 C31.9994458,21.2296324 31.486624,20.451462 31.6543906,19.6429084 C31.8516298,18.6769975 31.9500227,17.7505394 31.9500227,16.8336043 C31.9500227,15.2568568 31.6838632,13.7290851 31.190992,12.3196715 C29.318807,6.87882717 24.1447932,2.95623141 18.073908,2.95623141 C11.9640284,2.95623141 6.76054209,6.92825641 4.91737619,12.4180765 C4.44445564,13.798014 4.18827145,15.286333 4.18827145,16.8336043 C4.18827145,17.7500859 4.28666432,18.6769975 4.48390347,19.6429084 C4.65121669,20.4510085 4.1388483,21.2296324 3.34082322,21.3974197 C3.26192755,21.4173728 3.17305658,21.4268959 3.08463902,21.4173728 C2.89737518,21.4373259 2.71011134,21.4073963 2.54279813,21.3384674 C2.46390246,21.3089913 2.3850068,21.2890382 2.31608645,21.2400624 C1.95153408,21.0328224 1.67539926,20.6782016 1.58698171,20.2446754 C1.35029473,19.0914776 1.23240466,17.9382798 1.23240466,16.8345112 C1.23240466,15.1294291 1.48858885,13.4737763 1.97148471,11.916075 C4.08035669,5.02681779 10.5058189,0 18.0743614,0 C25.6923271,0 32.1372865,5.0857701 34.2071641,12.0344331 C34.6711325,13.5922162 34.9063432,15.2090858 34.9063432,16.8345112 L34.9063432,16.8345112 Z" id="路径" fill="#FFFFFF"></path>
                    <path d="M36,16.4894135 C36,18.5395933 35.2114968,20.2936512 34.0879137,21.0427989 C33.7428586,21.2695386 33.3783062,21.3978732 32.9842813,21.4173728 C32.9253363,21.4173728 32.8659378,21.4073963 32.7970175,21.3974197 C31.9989924,21.2296324 31.4861706,20.451462 31.6539372,19.6429084 C31.8511764,18.6769975 31.9495692,17.7505394 31.9495692,16.8336043 C31.9495692,15.2568568 31.6834097,13.7290851 31.1905386,12.3196715 C31.6734344,11.8367161 32.2547232,11.5605472 32.8659378,11.5605472 C33.3488337,11.5605472 33.802257,11.7278811 34.2062572,12.0335261 C35.2708953,12.8230335 36,14.5181391 36,16.4894135 L36,16.4894135 Z M4.48390347,19.6433619 C4.65121669,20.451462 4.1388483,21.2300859 3.34082322,21.3978732 C3.26192755,21.4178263 3.17305658,21.4273494 3.08463902,21.4178263 C2.89737518,21.4178263 2.72008665,21.3883501 2.54279813,21.3389209 C2.46390246,21.3094447 2.3850068,21.2894917 2.31608645,21.2405159 C0.985742355,20.6786551 0,18.7667864 0,16.489867 C0,14.4201876 0.817975717,12.6457231 1.97103129,11.9165285 C2.33558366,11.6897888 2.73006197,11.5619077 3.14358406,11.5619077 C3.79379314,11.5619077 4.40500781,11.8770758 4.91737619,12.419437 C4.44445564,13.7993744 4.18827145,15.2876934 4.18827145,16.8349647 C4.18827145,17.7509929 4.28666432,18.677451 4.48390347,19.6433619 L4.48390347,19.6433619 Z" id="形状" fill="#FFFFFF"></path>
                    <path d="M5.72673686,16.7252227 C5.72673686,21.1105782 8.06600752,25.1628139 11.8633684,27.3554917 C15.6607292,29.5481694 20.3392708,29.5481694 24.1366316,27.3554917 C27.9339925,25.1628139 30.2732631,21.1105782 30.2732631,16.7252227 C30.2732631,9.94605053 24.7783361,4.45044563 18,4.45044563 C11.2216639,4.45044563 5.72673686,9.94605053 5.72673686,16.7252227 L5.72673686,16.7252227 Z" id="路径" fill="#FFFFFF"></path>
                    <path d="M17.9972795,25.7403908 C14.9897224,25.7403908 12.2460577,24.083831 10.836818,21.4187333 C10.4554889,20.6967942 10.7311703,19.8025331 11.4525669,19.4207036 C12.1744168,19.0384205 13.0685677,19.3150429 13.4503501,20.0365284 C14.3454078,21.730727 16.0883672,22.7837059 17.996826,22.7837059 C19.9138999,22.7837059 21.6568593,21.730727 22.5469293,20.0347145 C22.9259912,19.3118685 23.8201421,19.0316183 24.5428989,19.4129944 C25.2656557,19.7921031 25.5436042,20.6863642 25.1645423,21.4092102 C23.7630107,24.0811101 21.0161721,25.7403908 17.9972795,25.7403908 L17.9972795,25.7403908 Z" id="路径" fill="#0F0F0F"></path>
                </g>
            </g>
        </g>
    </g>
</svg>