<?xml version="1.0" encoding="UTF-8"?>
<svg width="100px" height="100px" viewBox="0 0 100 100" version="1.1" xmlns="http://www.w3.org/2000/svg" xmlns:xlink="http://www.w3.org/1999/xlink">
    <title>编组 7</title>
    <defs>
        <linearGradient x1="50%" y1="0%" x2="51.4619146%" y2="100%" id="linearGradient-1">
            <stop stop-color="#36364A" stop-opacity="0.924388112" offset="0%"></stop>
            <stop stop-color="#666681" stop-opacity="0.355659965" offset="100%"></stop>
        </linearGradient>
    </defs>
    <g id="页面-1" stroke="none" stroke-width="1" fill="none" fill-rule="evenodd">
        <g id="我的" transform="translate(-570, -500)">
            <g id="编组-10" transform="translate(32, 477)">
                <g id="编组-7" transform="translate(538, 23)">
                    <rect id="矩形" fill="url(#linearGradient-1)" x="0" y="0" width="100" height="100" rx="36"></rect>
                    <g id="编组" transform="translate(27, 24)" fill="#FFFFFF" fill-rule="nonzero">
                        <path d="M40.3208035,0 L32.3135908,0 L4.59743106,0.0824106811 C3.37744617,0.0808672752 2.2070021,0.565285183 1.34445062,1.42873899 C0.481899146,2.2921928 -0.00183936478,3.46368794 5.25620671e-06,4.68464064 L5.25620671e-06,12.1515121 L5.25387406,12.1515121 C6.23969832,12.1515121 6.97906657,12.8908868 6.97906657,13.8774934 L6.97906657,15.0277608 C6.97906657,16.0143674 6.23969838,16.7537421 5.25387406,16.7537421 L0.092793997,16.768251 L0.0811960842,19.0554375 L0.0811960842,31.7942707 L5.33505961,31.7942707 C6.32088387,31.7942707 7.05967219,32.5342257 7.05967219,33.5202521 L7.05967219,34.6705194 C7.05967219,35.657126 6.32088387,36.3965007 5.33505961,36.3965007 L0.16122184,36.4104293 L0.16122184,47.3977456 C0.159369952,48.6192019 0.643506121,49.7911384 1.50668544,50.6546761 C2.36986475,51.5182138 3.54105489,52.0022909 4.7615418,51.9999838 L40.4025689,51.9999838 C41.6225538,52.0015189 42.7929979,51.517101 43.6555494,50.6536472 C44.5181009,49.7901934 45.0018394,48.6186983 44.9999947,47.3977456 L44.9999947,4.60222996 C44.9193838,2.05446334 42.8659699,0 40.3208035,0 Z M38.2262169,38.2048927 C38.2262169,38.2048927 38.1438715,38.3691337 38.1438716,38.450964 C38.0621062,38.6157854 37.8156501,38.8624371 37.6515393,39.026678 L37.1586272,39.2733297 L36.8304057,39.3551601 L12.0293864,39.3551601 C11.8652756,39.2733298 11.6188196,39.1909191 11.4547088,39.1090887 C11.290598,39.0272584 11.1259074,38.7800264 11.044142,38.5333747 C11.044142,38.450964 10.9617966,38.286723 10.9617966,38.286723 C10.8800312,38.2048927 10.6329953,37.1364557 10.9617966,35.985608 L10.9617966,35.9031974 L11.044142,35.8213671 C11.8652756,34.75293 13.8357644,33.6020824 15.9732634,32.4518151 C17.944912,31.3833781 20.8182998,29.7392271 20.8182998,28.9180221 L20.8182998,28.4247188 C20.824237,28.205976 20.734177,27.9955986 20.5718437,27.8490047 C18.8472311,26.1230234 17.9437521,23.7400781 17.9437522,21.1923114 C17.9437522,17.0828044 18.7654657,12.8090565 24.5957465,12.8090565 C30.4260272,12.8090565 31.2477407,17.0003938 31.2477407,21.1923114 C31.2477407,23.7400781 30.3442618,26.1253448 28.6196492,27.8490047 C28.4573159,27.9955986 28.3672559,28.205976 28.3731932,28.4247188 L28.3731932,28.9180221 C28.3731932,29.7392271 31.330666,31.3833781 33.2182295,32.4518151 C35.3539888,33.6020824 37.3244776,34.7529301 38.1473509,35.8213671 L38.2296963,35.9031974 L38.2296963,35.985608 C38.6402631,37.0540451 38.3120416,38.122482 38.2296963,38.2048927 L38.2262169,38.2048927 Z" id="形状"></path>
                    </g>
                </g>
            </g>
        </g>
    </g>
</svg>