<?xml version="1.0" encoding="UTF-8"?>
<svg width="100px" height="100px" viewBox="0 0 100 100" version="1.1" xmlns="http://www.w3.org/2000/svg" xmlns:xlink="http://www.w3.org/1999/xlink">
    <title>编组 5</title>
    <defs>
        <linearGradient x1="50%" y1="0%" x2="51.4619146%" y2="100%" id="linearGradient-1">
            <stop stop-color="#36364A" stop-opacity="0.924388112" offset="0%"></stop>
            <stop stop-color="#666681" stop-opacity="0.355659965" offset="100%"></stop>
        </linearGradient>
    </defs>
    <g id="页面-1" stroke="none" stroke-width="1" fill="none" fill-rule="evenodd">
        <g id="我的" transform="translate(-244, -500)">
            <g id="编组-10" transform="translate(32, 477)">
                <g id="编组-5" transform="translate(212, 23)">
                    <rect id="矩形" fill="url(#linearGradient-1)" x="0" y="0" width="100" height="100" rx="36"></rect>
                    <g id="编组" transform="translate(26, 26)" fill="#FFFFFF" fill-rule="nonzero">
                        <path d="M26.7690945,12.9229781 L46.2064673,12.9229781 C46.5521732,12.9229781 46.8689449,12.7299629 47.0272208,12.4226178 C47.1854966,12.1152726 47.1587314,11.745244 46.9578721,11.4638761 L39.8733066,1.54602688 C39.1803849,0.575921276 38.0616548,0 36.8694937,0 L26.7690945,0 C26.259426,0 25.8461324,0.4133624 25.8461324,0.923030169 L25.8461324,11.9998784 C25.8461324,12.5098936 26.259426,12.9229781 26.7690945,12.9229781 Z M1.79339376,12.9229781 L21.2307666,12.9229781 C21.4755603,12.9229781 21.7103483,12.8257694 21.8833646,12.6528229 C22.056519,12.47967 22.1537981,12.2448239 22.1537981,11.9999479 L22.1537981,0.923099657 C22.1537981,0.413431942 21.7404351,6.94881546e-05 21.2307666,6.94881546e-05 L11.1305063,6.94881546e-05 C9.93806767,6.94881546e-05 8.81899894,0.575805255 8.12585949,1.54609637 L1.04205838,11.4638761 C0.841314853,11.7452559 0.814602253,12.1152115 0.972840228,12.4225115 C1.1310782,12.7298115 1.44774539,12.9229781 1.79339376,12.9229781 Z M47.0769685,16.6155851 L0.922962017,16.6155851 C0.413293564,16.6155851 0,17.0286001 0,17.5385457 L0,44.3077404 C0,46.3471062 1.65296568,48 3.69226494,48 L44.3076656,48 C46.3470343,48 48,46.3470367 48,44.3077404 L48,17.5385457 C48,17.0286001 47.586637,16.6155851 47.0769685,16.6155851 Z M7.38459937,31.3844845 L12.9229273,31.3844845 C13.9426116,31.3844845 14.7691987,32.2111398 14.7691987,33.2308227 C14.7691987,34.2505056 13.9426116,35.0770914 12.9229273,35.0770914 L7.38459937,35.0770914 C6.36491503,35.0770914 5.53825846,34.2505056 5.53825846,33.2308227 C5.53825846,32.2111398 6.36491503,31.3844845 7.38459937,31.3844845 Z M18.4614636,42.4616801 L7.38459937,42.4616801 C6.72500896,42.4615868 6.11555728,42.1096627 5.78576208,41.5384415 C5.45592303,40.9672877 5.45592303,40.263535 5.78576208,39.6923812 C6.11559643,39.1212355 6.72505477,38.7694205 7.38459937,38.7694205 L18.4614636,38.7694205 C19.1210044,38.7694205 19.7304561,39.121246 20.0603009,39.6923812 C20.39014,40.263535 20.39014,40.9672877 20.0603009,41.5384415 C19.7305057,42.1096627 19.121054,42.4615868 18.4614636,42.4616801 Z" id="形状"></path>
                    </g>
                </g>
            </g>
        </g>
    </g>
</svg>