<?xml version="1.0" encoding="UTF-8"?>
<svg width="100px" height="100px" viewBox="0 0 100 100" version="1.1" xmlns="http://www.w3.org/2000/svg" xmlns:xlink="http://www.w3.org/1999/xlink">
    <title>编组 9</title>
    <defs>
        <linearGradient x1="50%" y1="0%" x2="51.4619146%" y2="100%" id="linearGradient-1">
            <stop stop-color="#36364A" stop-opacity="0.924388112" offset="0%"></stop>
            <stop stop-color="#666681" stop-opacity="0.355659965" offset="100%"></stop>
        </linearGradient>
    </defs>
    <g id="页面-1" stroke="none" stroke-width="1" fill="none" fill-rule="evenodd">
        <g id="首页-钱包" transform="translate(-407, -406)">
            <g id="编组-10" transform="translate(32, 382)">
                <g id="编组-9" transform="translate(375, 24)">
                    <rect id="矩形" fill="url(#linearGradient-1)" x="0" y="0" width="100" height="100" rx="36"></rect>
                    <g id="编组" transform="translate(26, 26)" fill="#FFFFFF" fill-rule="nonzero">
                        <path d="M32.5689587,33.2895116 L15.4373281,33.2895116 C16.8392927,41.928506 20.1524558,47.9968574 24.0031434,48 L24.0062868,48 C27.8601179,48 31.1701375,41.928506 32.5689587,33.2895116 Z M15.4373281,14.7104884 L32.5689587,14.7104884 C31.1669941,6.06835145 27.8569745,0 24.0031434,0 C20.1524558,0 16.8424361,6.06835145 15.4373281,14.7104884 L15.4373281,14.7104884 Z M17.1504912,1.00877308 C10.2633918,3.062236 4.65663856,8.08877697 1.86719057,14.7104884 L12.3222004,14.7104884 C13.1646365,9.20151892 14.7897839,4.27707215 17.1504912,1.00877308 Z M11.9261297,30.1909127 C11.7239912,28.133396 11.6201403,26.0674106 11.6149312,24 C11.6149312,21.9196019 11.7312377,19.8392039 11.9324165,17.8059447 L0.833005894,17.8059447 C0.289394693,19.8196705 0.00938941497,21.8953923 0,23.9811444 L0,24.0188556 C0,26.1589629 0.30805501,28.2173628 0.833005894,30.1909127 L11.9261297,30.1909127 L11.9261297,30.1909127 Z M36.0770138,17.8059447 C36.2781925,19.8392039 36.394499,21.9196019 36.394499,24 C36.394499,26.0803981 36.2781925,28.1639387 36.0770138,30.1940553 L47.1701375,30.1940553 C47.7172671,28.1821837 47.9962992,26.1068981 48,24.0219982 L48,23.9780018 C47.9934184,21.8939196 47.7176605,19.8194119 47.1795678,17.8059447 L36.0770138,17.8059447 L36.0770138,17.8059447 Z M1.86719057,33.2895116 C4.66191881,39.9121752 10.2727645,44.9382502 17.1630648,46.9912269 C14.8023576,43.7197853 13.1740668,38.7953385 12.3222004,33.2895116 L1.86719057,33.2895116 Z M46.1453831,14.7104884 C43.3506549,8.0878248 37.7398092,3.06174984 30.8495088,1.00877308 C33.2102161,4.27707215 34.8385069,9.20151892 35.6903733,14.7104884 L46.1453831,14.7104884 L46.1453831,14.7104884 Z M30.8589391,46.9912269 C37.7472451,44.934688 43.3567615,39.9098038 46.1548134,33.2895116 L35.6966601,33.2895116 C34.8479371,38.7953385 33.2227898,43.7197853 30.8589391,46.9912269 L30.8589391,46.9912269 Z M33.2888016,24 C33.2888016,21.8504648 33.1724951,19.7920649 32.9681729,17.8059447 L15.0318271,17.8059447 C14.6067764,21.9243826 14.6067764,26.0756174 15.0318271,30.1940553 L32.9681729,30.1940553 C33.1724951,28.2110776 33.2888016,26.1495352 33.2888016,24 L33.2888016,24 Z" id="形状"></path>
                    </g>
                </g>
            </g>
        </g>
    </g>
</svg>