<?xml version="1.0" encoding="UTF-8"?>
<svg width="100px" height="100px" viewBox="0 0 100 100" version="1.1" xmlns="http://www.w3.org/2000/svg" xmlns:xlink="http://www.w3.org/1999/xlink">
    <title>编组 5</title>
    <defs>
        <linearGradient x1="50%" y1="0%" x2="51.4619146%" y2="100%" id="linearGradient-1">
            <stop stop-color="#36364A" stop-opacity="0.924388112" offset="0%"></stop>
            <stop stop-color="#666681" stop-opacity="0.355659965" offset="100%"></stop>
        </linearGradient>
    </defs>
    <g id="页面-1" stroke="none" stroke-width="1" fill="none" fill-rule="evenodd">
        <g id="我的" transform="translate(-80, -500)">
            <g id="编组-10" transform="translate(32, 477)">
                <g id="编组-5" transform="translate(48, 23)">
                    <rect id="矩形" fill="url(#linearGradient-1)" x="0" y="0" width="100" height="100" rx="36"></rect>
                    <g id="编组" transform="translate(28, 25)" fill="#FFFFFF" fill-rule="nonzero">
                        <path d="M36.1245366,0 L8.10958985,0 C3.68617721,0 0,3.71287129 0,8.41584155 L0,41.8316832 C0,46.2871287 3.68617721,50 8.10958985,50 L35.8787914,50 C40.3022041,50 43.9883813,46.2871287 43.9883813,41.8316832 L43.9883813,8.41584155 C44.2341265,3.71287123 40.5479493,0 36.1245366,0 Z M27.7692016,30.4270642 C27.7692016,31.558286 27.0319662,32.4067022 26.0489856,32.4067022 L9.09257046,32.4067022 C8.10958985,32.4067022 7.37235441,31.5582859 7.37235441,30.4270642 L7.37235441,29.5786479 C7.37235441,28.4474262 8.10958985,27.5990099 9.09257046,27.5990099 L26.0489856,27.5990099 C27.0319662,27.5990099 27.7692016,28.4474262 27.7692016,29.5786479 L27.7692016,30.4270642 Z M34.8958109,19.9067022 L9.33831557,19.9067022 C8.35533496,19.9067022 7.37235441,18.7047791 7.37235441,17.5028561 C7.37235441,16.0004522 8.35533502,15.0990099 9.33831557,15.0990099 L34.6500657,15.0990099 C35.8787914,15.0990099 36.8617721,16.0004522 36.8617721,17.5028561 C36.8617721,18.7047792 35.8787914,19.9067022 34.8958109,19.9067022 L34.8958109,19.9067022 Z" id="形状"></path>
                    </g>
                </g>
            </g>
        </g>
    </g>
</svg>