<?xml version="1.0" encoding="UTF-8"?>
<svg width="48px" height="48px" viewBox="0 0 48 48" version="1.1" xmlns="http://www.w3.org/2000/svg" xmlns:xlink="http://www.w3.org/1999/xlink">
    <title>编组 14</title>
    <g id="页面-1" stroke="none" stroke-width="1" fill="none" fill-rule="evenodd">
        <g id="首页--U卡-确认充值-支付密码" transform="translate(-68, -1252)">
            <g id="编组-6" transform="translate(0, 1076)">
                <g id="编组-16" transform="translate(32, 140)">
                    <g id="编组-15" transform="translate(36, 24)">
                        <g id="编组-14" transform="translate(0, 12)">
                            <rect id="矩形" x="0" y="0" width="48" height="48"></rect>
                            <g id="编组" transform="translate(8, 4)" fill="#FFFFFF" fill-rule="nonzero">
                                <path d="M23.0780889,16.1975904 L23.0780889,11.4554217 C23.0780889,7.77831325 20.1343822,4.8 16.5,4.8 C12.8656178,4.8 9.92191109,7.78313253 9.92191109,11.460241 L9.92191109,16.2024096 L23.0780889,16.2024096 L23.0780889,16.1975904 Z M4.83949192,16.2506024 L4.83472864,16.1012048 L4.83472864,10.8915663 C4.83472864,8.00481928 5.96838915,5.23373494 7.98801963,3.19036145 C10.0076501,1.14698795 12.7417725,0 15.5997402,0 L17.4050231,0 C23.3495958,0 28.1652714,4.87710843 28.1652714,10.886747 L28.1652714,16.2506024 C30.9375,16.6409639 33,19.0409639 33,21.8746988 L33,34.3228916 C33,37.460241 30.4897517,40 27.3888568,40 L5.61114319,40 C2.51024827,40 0,37.460241 0,34.3228916 L0,21.8795181 C0,19.0457831 2.0625,16.6457831 4.83949192,16.2506024 Z M15.204388,29.0698795 L15.204388,32.7807229 C15.204388,33.5036145 15.7855081,34.0915663 16.5,34.0915663 C17.2144919,34.0915663 17.795612,33.5036145 17.795612,32.7807229 L17.795612,29.0698795 C19.3913106,28.4385542 20.3201501,26.746988 20.0010104,25.0457831 C19.6818707,23.339759 18.2147806,22.1060241 16.5,22.1060241 C14.7852194,22.1060241 13.3133661,23.339759 12.9989896,25.0457831 C12.6798499,26.746988 13.6086894,28.4385542 15.204388,29.0698795 L15.204388,29.0698795 Z" id="形状"></path>
                            </g>
                        </g>
                    </g>
                </g>
            </g>
        </g>
    </g>
</svg>