<?xml version="1.0" encoding="UTF-8"?>
<svg width="40px" height="40px" viewBox="0 0 40 40" version="1.1" xmlns="http://www.w3.org/2000/svg" xmlns:xlink="http://www.w3.org/1999/xlink">
    <title>形状</title>
    <g id="页面-1" stroke="none" stroke-width="1" fill="none" fill-rule="evenodd">
        <g id="我的" transform="translate(-68, -760)">
            <g id="编组-30" transform="translate(32, 720)">
                <g id="编组" transform="translate(36, 40)">
                    <g id="编组-18" transform="translate(4, 2)">
                        <path d="M17.9930949,14.3671072 C17.9919861,13.2708605 17.1014036,12.3829709 16.0036813,12.3837085 C14.9059589,12.3844469 14.0165744,13.2735332 14.0169435,14.3697805 C14.0173128,15.4660277 14.907296,16.3545168 16.0050187,16.3545168 C17.1033276,16.35341 17.9930949,15.4639405 17.9930949,14.3671072 L17.9930949,14.3671072 Z" id="路径" fill-rule="nonzero"></path>
                        <path d="M29.0339463,3.24483282 L16.9970486,0.126344425 C16.3437307,-0.0421148083 15.658274,-0.0421148083 15.0049561,0.126344425 L2.96805844,3.24483282 C1.21964408,3.69737117 -0.00100902669,5.27350984 6.25875145e-07,7.07726454 L6.25875145e-07,21.115476 C6.25875145e-07,24.6089852 2.00815902,27.9340358 5.96222167,30.9703004 C9.03470306,33.3367417 12.5429547,34.9491306 14.3603375,35.6991722 C15.4308392,36.1423227 16.6421592,36.093935 17.6737978,35.5668119 C19.4811398,34.6503172 22.9532446,32.7471369 26.0096607,30.3064935 C29.9858131,27.1298468 32.0000006,24.0374294 32.0000006,21.115476 L32.0000006,7.07726454 C32.0019517,5.2738461 30.7819761,3.69751566 29.0339463,3.24483282 Z" id="形状" stroke="#FFFFFF" stroke-width="3" fill-rule="nonzero"></path>
                        <path d="M16.5,19 C17.3284271,19 18,19.6715729 18,20.5 L18,21 L19.5,21 C20.3284271,21 21,21.6715729 21,22.5 C21,23.3284271 20.3284271,24 19.5,24 L18,24 L18,26.5 C18,27.3284271 17.3284271,28 16.5,28 C15.6715729,28 15,27.3284271 15,26.5 L15,20.5 C15,19.6715729 15.6715729,19 16.5,19 Z" id="形状结合" fill="#FFFFFF"></path>
                        <circle id="椭圆形" stroke="#FFFFFF" stroke-width="3" fill-rule="nonzero" cx="16" cy="14" r="5"></circle>
                    </g>
                </g>
            </g>
        </g>
    </g>
</svg>