<?xml version="1.0" encoding="UTF-8"?>
<svg width="40px" height="40px" viewBox="0 0 40 40" version="1.1" xmlns="http://www.w3.org/2000/svg" xmlns:xlink="http://www.w3.org/1999/xlink">
    <title>编组</title>
    <g id="页面-1" stroke="none" stroke-width="1" fill="none" fill-rule="evenodd">
        <g id="我的" transform="translate(-68, -1168)" fill-rule="nonzero" stroke="#FFFFFF" stroke-width="3">
            <g id="编组-30" transform="translate(32, 720)">
                <g id="编组-27" transform="translate(0, 408)">
                    <g id="编组" transform="translate(36, 40)">
                        <path d="M20,2 C11.7157287,2 5,8.55334344 5,16.6373023 C5,24.621472 10.6834128,32.2852069 19.6589951,37.9030882 C19.8662878,38.0323039 20.131607,38.0323039 20.3388997,37.9030882 C29.4976141,32.0551511 35,24.6255802 35,16.6393563 C35.000558,12.7569465 33.4204519,9.0333637 30.6073458,6.28789277 C27.7942396,3.54242184 23.9786119,2 20,2 L20,2 Z M19.9999999,22.9309725 C16.4379725,22.9309725 13.5503788,20.1132004 13.5503788,16.6373023 C13.5503788,13.1614042 16.4379725,10.343632 19.9999999,10.343632 C23.5620272,10.343632 26.4496209,13.1614042 26.4496209,16.6373023 C26.4496209,18.3064874 25.7701092,19.907307 24.5605706,21.0875992 C23.3510321,22.2678913 21.7105457,22.9309725 19.9999999,22.9309725 Z" id="形状"></path>
                    </g>
                </g>
            </g>
        </g>
    </g>
</svg>