<?xml version="1.0" encoding="UTF-8"?>
<svg width="40px" height="40px" viewBox="0 0 40 40" version="1.1" xmlns="http://www.w3.org/2000/svg" xmlns:xlink="http://www.w3.org/1999/xlink">
    <title>形状</title>
    <g id="页面-1" stroke="none" stroke-width="1" fill="none" fill-rule="evenodd">
        <g id="我的" transform="translate(-68, -1032)" fill-rule="nonzero">
            <g id="编组-30" transform="translate(32, 720)">
                <g id="编组-26" transform="translate(0, 272)">
                    <g id="编组" transform="translate(36, 40)">
                        <g id="编组-19" transform="translate(3, 2)">
                            <path d="M27.7656683,0 L6.23433174,0 C2.79267185,0.00352997312 0.00353777209,2.78651544 0,6.22058824 L0,29.7794118 C0.00353777209,33.2134846 2.79267185,35.99647 6.23433174,36 L27.7656683,36 C31.2073281,35.99647 33.9964622,33.2134846 34,29.7794118 L34,6.22058824 C33.9964622,2.78651544 31.2073281,0.00352997312 27.7656683,0 L27.7656683,0 Z" id="形状" stroke="#FFFFFF" stroke-width="3"></path>
                            <path d="M18.83778,24.0377135 L10.7571105,24.0377135 C10.0481621,24.0377135 9.47344584,23.3661406 9.47344584,22.5377135 C9.47344584,21.7092864 10.0481621,21.0377135 10.7571105,21.0377135 L18.83778,21.0377135 C19.5467285,21.0377135 20.1214448,21.7092863 20.1214448,22.5377135 C20.1214448,23.3661406 19.5467285,24.0377135 18.83778,24.0377135 L18.83778,24.0377135 Z" id="路径" fill="#FFFFFF"></path>
                            <path d="M23.2428895,13.443074 L10.7571105,13.443074 C10.048162,13.443074 9.47344576,12.7715011 9.47344576,11.943074 C9.47344576,11.1146469 10.048162,10.443074 10.7571105,10.443074 L23.2428895,10.443074 C23.951838,10.443074 24.5265542,11.1146469 24.5265542,11.943074 C24.5265542,12.7715011 23.951838,13.443074 23.2428895,13.443074 Z" id="路径" fill="#FFFFFF"></path>
                        </g>
                    </g>
                </g>
            </g>
        </g>
    </g>
</svg>