<?xml version="1.0" encoding="UTF-8"?>
<svg width="40px" height="40px" viewBox="0 0 40 40" version="1.1" xmlns="http://www.w3.org/2000/svg" xmlns:xlink="http://www.w3.org/1999/xlink">
    <title>形状</title>
    <g id="页面-1" stroke="none" stroke-width="1" fill="none" fill-rule="evenodd">
        <g id="我的" transform="translate(-68, -1306)" fill-rule="nonzero">
            <g id="编组-30" transform="translate(32, 720)">
                <g id="编组-29" transform="translate(0, 544)">
                    <g id="编组" transform="translate(36, 42)">
                        <g id="编组-17" transform="translate(2.2594, 1.7499)">
                            <path d="M17.9986333,1.49999938 C22.5536398,1.50414973 26.6769065,3.3519883 29.6624591,6.33754092 C32.6480117,9.32309354 34.4958503,13.4463602 34.5,18 C34.5,22.5563492 32.6531746,26.6813492 29.6672619,29.6672619 C26.6813492,32.6531746 22.5563492,34.5 18,34.5 C13.4436508,34.5 9.31865081,32.6531746 6.33273811,29.6672619 C3.34682541,26.6813492 1.5,22.5563492 1.5,18 C1.5,13.4436508 3.34682541,9.31865081 6.33273811,6.33273811 C9.31865081,3.34682541 13.4436508,1.5 17.9986333,1.49999938 Z" id="路径" stroke="#FFFFFF" stroke-width="3"></path>
                            <g id="？" transform="translate(11.588, 7.616)" fill="#FFFFFF">
                                <path d="M6.72,0 C4.648,0 3.024,0.588 1.82,1.764 C0.588,2.94 0,4.564 0,6.636 L3.192,6.636 C3.192,5.46 3.416,4.536 3.892,3.892 C4.424,3.108 5.292,2.744 6.524,2.744 C7.476,2.744 8.232,2.996 8.764,3.528 C9.268,4.06 9.548,4.788 9.548,5.712 C9.548,6.412 9.296,7.084 8.792,7.7 L8.456,8.092 C6.636,9.716 5.544,10.892 5.18,11.648 C4.788,12.404 4.62,13.328 4.62,14.392 L4.62,14.784 L7.84,14.784 L7.84,14.392 C7.84,13.72 7.98,13.132 8.26,12.572 C8.512,12.068 8.876,11.592 9.38,11.172 C10.724,9.996 11.536,9.24 11.788,8.96 C12.46,8.064 12.824,6.916 12.824,5.516 C12.824,3.808 12.264,2.464 11.144,1.484 C10.024,0.476 8.54,0 6.72,0 Z M6.216,16.156 C5.6,16.156 5.096,16.352 4.676,16.744 C4.256,17.136 4.06,17.64 4.06,18.256 C4.06,18.872 4.256,19.376 4.676,19.768 C5.096,20.16 5.6,20.384 6.216,20.384 C6.832,20.384 7.336,20.188 7.756,19.796 C8.176,19.404 8.4,18.872 8.4,18.256 C8.4,17.64 8.176,17.136 7.784,16.744 C7.364,16.352 6.832,16.156 6.216,16.156 Z" id="形状"></path>
                            </g>
                        </g>
                    </g>
                </g>
            </g>
        </g>
    </g>
</svg>