<?xml version="1.0" encoding="UTF-8"?>
<svg width="40px" height="40px" viewBox="0 0 40 40" version="1.1" xmlns="http://www.w3.org/2000/svg" xmlns:xlink="http://www.w3.org/1999/xlink">
    <title>编组 56</title>
    <g id="页面-1" stroke="none" stroke-width="1" fill="none" fill-rule="evenodd">
        <g id="首页--U卡-详情-选择持卡人" transform="translate(-678, -112)">
            <g id="编组-8" transform="translate(0, 88)">
                <g id="编组-56" transform="translate(678, 24)">
                    <rect id="矩形" x="0" y="0" width="40" height="40"></rect>
                    <g id="编组" transform="translate(2, 4)" fill="#FFFFFF" fill-rule="nonzero">
                        <path d="M4.9184845,0 C5.69001148,0 6.34443169,0.258983891 6.88174512,0.776951673 C7.41905855,1.29491945 7.68771527,1.93556382 7.68771527,2.69888476 L7.68771527,4.78438662 C7.68771527,5.54770756 7.41905855,6.19516729 6.88174512,6.7267658 C6.34443169,7.25836431 5.69001148,7.52416357 4.9184845,7.52416357 L2.72789897,7.52416357 C1.98392652,7.52416357 1.34328358,7.25836431 0.805970149,6.7267658 C0.268656716,6.19516729 0,5.54770756 0,4.78438662 L0,2.69888476 C0,1.93556382 0.268656716,1.29491945 0.805970149,0.776951673 C1.34328358,0.258983891 1.98392652,0 2.72789897,0 L4.9184845,0 Z M33.272101,0 C34.0160735,0 34.6567164,0.258983891 35.1940299,0.776951673 C35.7313433,1.29491945 36,1.93556382 36,2.69888476 L36,4.78438662 C36,5.54770756 35.7313433,6.19516729 35.1940299,6.7267658 C34.6567164,7.25836431 34.0160735,7.52416357 33.272101,7.52416357 L15.6234214,7.52416357 C14.8518944,7.52416357 14.1974742,7.25836431 13.6601607,6.7267658 C13.1228473,6.19516729 12.8541906,5.54770756 12.8541906,4.78438662 L12.8541906,2.69888476 C12.8541906,1.93556382 13.1228473,1.29491945 13.6601607,0.776951673 C14.1974742,0.258983891 14.8518944,0 15.6234214,0 L33.272101,0 Z M4.9184845,12.7174721 C5.69001148,12.7174721 6.34443169,12.9832714 6.88174512,13.5148699 C7.41905855,14.0464684 7.68771527,14.6939281 7.68771527,15.4572491 L7.68771527,17.5427509 C7.68771527,18.2788104 7.41905855,18.9126394 6.88174512,19.4442379 C6.34443169,19.9758364 5.69001148,20.2416357 4.9184845,20.2416357 L2.72789897,20.2416357 C1.98392652,20.2416357 1.34328358,19.9758364 0.805970149,19.4442379 C0.268656716,18.9126394 0,18.2788104 0,17.5427509 L0,15.4572491 C0,14.6939281 0.268656716,14.0464684 0.805970149,13.5148699 C1.34328358,12.9832714 1.98392652,12.7174721 2.72789897,12.7174721 L4.9184845,12.7174721 Z M33.272101,12.7174721 C34.0160735,12.7174721 34.6567164,12.9832714 35.1940299,13.5148699 C35.7313433,14.0464684 36,14.6939281 36,15.4572491 L36,17.5427509 C36,18.2788104 35.7313433,18.9126394 35.1940299,19.4442379 C34.6567164,19.9758364 34.0160735,20.2416357 33.272101,20.2416357 L15.6234214,20.2416357 C14.8518944,20.2416357 14.1974742,19.9758364 13.6601607,19.4442379 C13.1228473,18.9126394 12.8541906,18.2788104 12.8541906,17.5427509 L12.8541906,15.4572491 C12.8541906,14.6939281 13.1228473,14.0464684 13.6601607,13.5148699 C14.1974742,12.9832714 14.8518944,12.7174721 15.6234214,12.7174721 L33.272101,12.7174721 Z M4.9184845,25.4758364 C5.69001148,25.4758364 6.34443169,25.7416357 6.88174512,26.2732342 C7.41905855,26.8048327 7.68771527,27.4386617 7.68771527,28.1747212 L7.68771527,30.260223 C7.68771527,31.023544 7.41905855,31.6710037 6.88174512,32.2026022 C6.34443169,32.7342007 5.69001148,33 4.9184845,33 L2.72789897,33 C1.98392652,33 1.34328358,32.7342007 0.805970149,32.2026022 C0.268656716,31.6710037 0,31.023544 0,30.260223 L0,28.1747212 C0,27.4386617 0.268656716,26.8048327 0.805970149,26.2732342 C1.34328358,25.7416357 1.98392652,25.4758364 2.72789897,25.4758364 L4.9184845,25.4758364 Z M33.272101,25.4758364 C34.0160735,25.4758364 34.6567164,25.7416357 35.1940299,26.2732342 C35.7313433,26.8048327 36,27.4386617 36,28.1747212 L36,30.260223 C36,31.023544 35.7313433,31.6710037 35.1940299,32.2026022 C34.6567164,32.7342007 34.0160735,33 33.272101,33 L15.6234214,33 C14.8518944,33 14.1974742,32.7342007 13.6601607,32.2026022 C13.1228473,31.6710037 12.8541906,31.023544 12.8541906,30.260223 L12.8541906,28.1747212 C12.8541906,27.4386617 13.1228473,26.8048327 13.6601607,26.2732342 C14.1974742,25.7416357 14.8518944,25.4758364 15.6234214,25.4758364 L33.272101,25.4758364 Z" id="形状"></path>
                    </g>
                </g>
            </g>
        </g>
    </g>
</svg>