<?xml version="1.0" encoding="UTF-8"?>
<svg width="56px" height="56px" viewBox="0 0 56 56" version="1.1" xmlns="http://www.w3.org/2000/svg" xmlns:xlink="http://www.w3.org/1999/xlink">
    <title>编组</title>
    <g id="页面-1" stroke="none" stroke-width="1" fill="none" fill-rule="evenodd">
        <g id="首页-卡片列表--U卡-选择充值方式" transform="translate(-662, -1172)" fill-rule="nonzero">
            <g id="编组-17" transform="translate(0, 1142)">
                <g id="编组" transform="translate(662, 30)">
                    <path d="M0,28 C0,12.5356 12.5328,0 28,0 C43.4644,0 56,12.5328 56,28 C56,43.4644 43.4672,56 28,56 C12.5356,56 0,43.4672 0,28 L0,28 Z" id="形状" fill="#3D3D3D"></path>
                    <path d="M28,26.0204 L21.0644,19.0834 C20.8017079,18.8225504 20.4461501,18.6767429 20.0759502,18.6780557 C19.7057504,18.6793684 19.3512355,18.8276939 19.0904,19.0904 C18.8266618,19.3506818 18.6776208,19.7054002 18.6762981,20.075944 C18.6749928,20.4464878 18.8215144,20.8022543 19.0834,21.0644 L26.0204,28 L19.0834,34.9356 C18.8225504,35.1982921 18.6767429,35.5538499 18.6780557,35.9240498 C18.6793684,36.2942496 18.8276939,36.6487645 19.0904,36.9096 C19.3506818,37.1733382 19.7054002,37.3223792 20.075944,37.3237019 C20.4464878,37.3250072 20.8022543,37.1784856 21.0644,36.9166 L28,29.9796 L34.9356,36.9166 C35.1982921,37.1774496 35.5538499,37.3232571 35.9240498,37.3219443 C36.2942496,37.3206316 36.6487645,37.1723061 36.9096,36.9096 C37.1733382,36.6493182 37.3223792,36.2945998 37.3237019,35.924056 C37.3250072,35.5535122 37.1784856,35.1977457 36.9166,34.9356 L29.9796,28 L36.9166,21.0644 C37.1774496,20.8017079 37.3232571,20.4461501 37.3219443,20.0759502 C37.3206316,19.7057504 37.1723061,19.3512355 36.9096,19.0904 C36.6493182,18.8266618 36.2945998,18.6776208 35.924056,18.6762981 C35.5535122,18.6749928 35.1977457,18.8215144 34.9356,19.0834 L28,26.0204 Z" id="路径" fill="#BCBCBC"></path>
                </g>
            </g>
        </g>
    </g>
</svg>