<?xml version="1.0" encoding="UTF-8"?>
<svg width="48px" height="48px" viewBox="0 0 48 48" version="1.1" xmlns="http://www.w3.org/2000/svg" xmlns:xlink="http://www.w3.org/1999/xlink">
    <title>编组</title>
    <g id="页面-1" stroke="none" stroke-width="1" fill="none" fill-rule="evenodd">
        <g id="注册" transform="translate(-32, -112)" fill-rule="nonzero">
            <g id="编组" transform="translate(32, 112)">
                <path d="M0,24 C0,16.544 0,12.818 1.218,9.87800002 C2.84191661,5.957061 5.957061,2.84191661 9.87800002,1.218 C12.818,0 16.544,0 24,0 C31.454,0 35.182,0 38.122,1.218 C42.042939,2.84191661 45.1580834,5.957061 46.782,9.87800002 C48,12.818 48,16.544 48,24 C48,31.454 48,35.182 46.782,38.122 C45.1580834,42.042939 42.042939,45.1580834 38.122,46.782 C35.182,48 31.454,48 24,48 C16.544,48 12.818,48 9.87800002,46.782 C5.957061,45.1580834 2.84191661,42.042939 1.218,38.122 C0,35.182 0,31.454 0,24 Z" id="路径" fill="#686868"></path>
                <path d="M22.806,16.958 L22.806,12.96 C22.428,11.288 20.992,12.308 20.992,12.308 L11.016,20.518 C8.82200002,21.97 10.866,23.062 10.866,23.062 L20.694,31.202 C22.66,32.582 22.808,30.474 22.808,30.474 L22.808,26.768 C32.786,23.788 36.868,35.708 36.868,35.708 C37.244,36.364 37.472,35.708 37.472,35.708 C41.326,17.83 22.806,16.958 22.806,16.958 L22.806,16.958 Z" id="路径" fill="#FFFFFF"></path>
            </g>
        </g>
    </g>
</svg>