<?xml version="1.0" encoding="UTF-8"?>
<svg width="24px" height="24px" viewBox="0 0 24 24" version="1.1" xmlns="http://www.w3.org/2000/svg" xmlns:xlink="http://www.w3.org/1999/xlink">
    <title>编组</title>
    <g id="页面-1" stroke="none" stroke-width="1" fill="none" fill-rule="evenodd">
        <g id="首页--U卡-详情-选择持卡人" transform="translate(-670, -268)" fill="#9191AA" fill-rule="nonzero">
            <g id="编组" transform="translate(670, 268)">
                <path d="M21.5935116,5.28676678 C22.0967603,4.70198787 22.0341516,3.81765097 21.4535995,3.31053224 L18.0621299,0.345242056 C17.7838953,0.100942853 17.420551,-0.0220804529 17.0521121,0.00326415762 C16.6836733,0.0286087682 16.3403555,0.200242784 16.0977638,0.480369202 L13.9225968,3.00274264 L19.4202101,7.80726345 L21.5935116,5.28676678 Z M12.6223468,4.50415539 L0.0171980461,19.1035176 C-0.0313048243,19.1598206 0.0339875084,21.6840708 0.0750283826,23.0841382 C0.0901606119,23.5913668 0.503366495,23.9945981 1.00777581,23.9943698 C2.53561611,23.9943698 5.46444303,23.9643415 5.5129459,23.9080385 L18.1180947,9.31242973 L12.6223468,4.50415539 Z M10.4583728,21.7253597 L8.39513547,24 L22.8807031,24 C23.4967611,23.9948987 23.9949293,23.4937206 24,22.8739404 C23.9949293,22.2541603 23.4967611,21.7529822 22.8807031,21.7478809 L10.4583728,21.7253597 Z" id="形状"></path>
            </g>
        </g>
    </g>
</svg>