<?xml version="1.0" encoding="UTF-8"?>
<svg width="56px" height="56px" viewBox="0 0 56 56" version="1.1" xmlns="http://www.w3.org/2000/svg" xmlns:xlink="http://www.w3.org/1999/xlink">
    <title>编组 24</title>
    <g id="页面-1" stroke="none" stroke-width="1" fill="none" fill-rule="evenodd">
        <g id="首页-钱包-国际汇款" transform="translate(-44, -204)" fill-rule="nonzero">
            <g id="搜索" transform="translate(32, 192)">
                <g id="编组-24" transform="translate(12, 12)">
                    <rect id="矩形" fill="#F4F7F9" opacity="0.19577753" x="0" y="0" width="56" height="56" rx="28"></rect>
                    <g id="编组" transform="translate(12, 12)" fill="#B7B7B7">
                        <path d="M26.7128007,25.0154025 C29.0408889,22.2872133 30.3615658,18.8264659 30.3615658,15.1812787 C30.3619659,6.79626778 23.5657409,0 15.181183,0 C6.79662504,0 0,6.79666787 0,15.1808786 C0,23.5654894 6.79662504,30.3625573 15.1807829,30.3625573 C16.6831184,30.3637975 18.1773151,30.1419992 19.6145125,29.7044152 C20.2445931,29.508012 20.5978939,28.83974 20.4053957,28.2084518 C20.2128975,27.5771636 19.5468293,27.219731 18.9143657,27.4083193 C17.7041078,27.7766865 16.4458581,27.9632948 15.1807829,27.9620389 C8.12250302,27.9616388 2.4005033,22.239603 2.4005033,15.1808786 C2.4005033,8.12255421 8.12250302,2.40051843 15.1807829,2.40051843 C22.2394628,2.40051843 27.9618627,8.12255421 27.9618627,15.1808786 C27.9618627,18.5296018 26.6347844,21.6958856 24.3182987,24.082401 C23.7900853,24.6264688 23.7964995,25.4938255 24.3327017,26.0300216 L29.9578812,31.6552365 C30.427637,32.1175146 31.1822689,32.1145307 31.6483543,31.6485522 C32.1144398,31.1825737 32.1176015,30.4279377 31.655437,29.95807 L26.7128007,25.0154025 Z" id="路径"></path>
                    </g>
                </g>
            </g>
        </g>
    </g>
</svg>