<?xml version="1.0" encoding="UTF-8"?>
<svg width="28px" height="28px" viewBox="0 0 28 28" version="1.1" xmlns="http://www.w3.org/2000/svg" xmlns:xlink="http://www.w3.org/1999/xlink">
    <title>形状</title>
    <g id="页面-1" stroke="none" stroke-width="1" fill="none" fill-rule="evenodd">
        <g id="引导页" transform="translate(-50, -1561)" fill="#FFFFFF">
            <path d="M50,1575 C50,1567.26814 56.2681445,1561 64,1561 C71.7318555,1561 78,1567.26814 78,1575 C78,1582.73186 71.7318555,1589 64,1589 C56.2681445,1589 50,1582.73186 50,1575 Z M61.4655078,1580.32191 C61.8312917,1580.69914 62.4315766,1580.71459 62.8162891,1580.3567 L71.9906094,1571.8273 C72.3812106,1571.4643 72.4035832,1570.85338 72.0405801,1570.46278 C71.6775769,1570.07218 71.0666598,1570.04981 70.6760586,1570.41281 L62.2234766,1578.33009 L58.2551602,1574.2382 C58.0155806,1573.98791 57.6602533,1573.88517 57.3240695,1573.969 C56.9878857,1574.05283 56.7223954,1574.31037 56.6283853,1574.64385 C56.5343753,1574.97733 56.626261,1575.33562 56.8691602,1575.5827 L61.466,1580.32191 L61.4655078,1580.32191 Z" id="形状"></path>
        </g>
    </g>
</svg>