<?xml version="1.0" encoding="UTF-8"?>
<svg width="28px" height="28px" viewBox="0 0 28 28" version="1.1" xmlns="http://www.w3.org/2000/svg" xmlns:xlink="http://www.w3.org/1999/xlink">
    <title>编组</title>
    <g id="页面-1" stroke="none" stroke-width="1" fill="none" fill-rule="evenodd">
        <g id="登录" transform="translate(-83, -1532)" fill="#020202">
            <g id="编组" transform="translate(83, 1532)">
                <path d="M0,14 C0,6.26814453 6.26814453,0 14,0 C21.7318555,0 28,6.26814453 28,14 C28,21.7318555 21.7318555,28 14,28 C6.26814453,28 0,21.7318555 0,14 Z M11.4655078,19.3219141 C11.8312917,19.6991361 12.4315766,19.7145928 12.8162891,19.3566953 L21.9906094,10.8273047 C22.3812106,10.4643015 22.4035832,9.85338445 22.0405801,9.46278322 C21.6775769,9.072182 21.0666598,9.04980934 20.6760586,9.4128125 L12.2234766,17.3300859 L8.25516016,13.2382031 C8.01558063,12.987906 7.66025328,12.8851723 7.32406951,12.9690023 C6.98788574,13.0528324 6.72239535,13.3103719 6.62838533,13.6438522 C6.5343753,13.9773325 6.62626096,14.3356184 6.86916016,14.5826953 L11.466,19.3219141 L11.4655078,19.3219141 Z" id="形状"></path>
            </g>
        </g>
    </g>
</svg>