<?xml version="1.0" encoding="UTF-8"?>
<svg width="36px" height="36px" viewBox="0 0 36 36" version="1.1" xmlns="http://www.w3.org/2000/svg" xmlns:xlink="http://www.w3.org/1999/xlink">
    <title>编组</title>
    <g id="页面-1" stroke="none" stroke-width="1" fill="none" fill-rule="evenodd">
        <g id="登录" transform="translate(-642, -884)">
            <g id="编组-3" transform="translate(48, 852)">
                <g id="编组" transform="translate(594, 32)">
                    <rect id="矩形" x="0" y="0" width="36" height="36"></rect>
                    <g transform="translate(0, 6)" stroke="#B7B7B7" stroke-width="2">
                        <path d="M17.9995672,1 C21.8177492,1 25.3615977,2.19157903 28.2955942,4.22899173 C31.2205415,6.26012052 33.5399215,9.13088722 34.9234649,12.4998978 C33.5399268,15.8688818 31.2205753,18.7397318 28.2956609,20.7709093 C25.3616522,22.8084023 21.8177786,24 17.9995672,24 C14.1786385,24 10.6359233,22.8091859 7.70359303,20.7727606 C4.77847807,18.7413462 2.46026815,15.8695278 1.07682759,12.4990056 C2.46085955,9.12951523 4.77888156,6.25824943 7.7036597,4.22714046 C10.6359778,2.19079537 14.1786679,1 17.9995672,1 Z" id="形状"></path>
                        <path d="M17.9995672,6.49986782 C19.631668,6.49986782 21.1116281,7.17358891 22.1829544,8.26481415 C23.2479044,9.34954452 23.9083041,10.847107 23.9083041,12.4997797 C23.9083041,14.1528542 23.2479534,15.6504201 22.1831395,16.7351075 C21.1117986,17.8264437 19.6317682,18.5001322 17.9995672,18.5001322 C16.3673038,18.5001322 14.887234,17.8265051 13.8158885,16.7351643 C12.7511524,15.6505561 12.0908304,14.1530549 12.0908304,12.4997797 C12.0908304,10.847107 12.7512301,9.34954452 13.8161801,8.26481415 C14.8875064,7.17358891 16.3674665,6.49986782 17.9995672,6.49986782 Z" id="路径"></path>
                    </g>
                </g>
            </g>
        </g>
    </g>
</svg>