<?xml version="1.0" encoding="UTF-8"?>
<svg width="694px" height="288px" viewBox="0 0 694 288" version="1.1" xmlns="http://www.w3.org/2000/svg" xmlns:xlink="http://www.w3.org/1999/xlink">
    <title>编组 6</title>
    <defs>
        <linearGradient x1="40.6750175%" y1="40.1923304%" x2="88.5634261%" y2="62.1388055%" id="linearGradient-1">
            <stop stop-color="#C11331" offset="0%"></stop>
            <stop stop-color="#151818" offset="100%"></stop>
        </linearGradient>
        <path d="M36,0 L650,0 C669.882251,-7.10542736e-15 686,16.117749 686,36 L686,280 L686,280 L0,280 L0,36 C0,16.117749 16.117749,0 36,0 Z" id="path-2"></path>
        <filter x="-5.5%" y="-3.9%" width="110.9%" height="110.9%" filterUnits="objectBoundingBox" id="filter-4">
            <feOffset dx="0" dy="1" in="SourceAlpha" result="shadowOffsetOuter1"></feOffset>
            <feGaussianBlur stdDeviation="1" in="shadowOffsetOuter1" result="shadowBlurOuter1"></feGaussianBlur>
            <feColorMatrix values="0 0 0 0 0.47993483   0 0 0 0 0.554863338   0 0 0 0 0.707002944  0 0 0 0.5 0" type="matrix" in="shadowBlurOuter1" result="shadowMatrixOuter1"></feColorMatrix>
            <feMerge>
                <feMergeNode in="shadowMatrixOuter1"></feMergeNode>
                <feMergeNode in="SourceGraphic"></feMergeNode>
            </feMerge>
        </filter>
        <linearGradient x1="36.8821049%" y1="10.7976296%" x2="61.6707306%" y2="100%" id="linearGradient-5">
            <stop stop-color="#FFFFFF" offset="0%"></stop>
            <stop stop-color="#EFF3F8" offset="100%"></stop>
        </linearGradient>
    </defs>
    <g id="页面-1" stroke="none" stroke-width="1" fill="none" fill-rule="evenodd">
        <g id="首页-增值-卡片选择-充值" transform="translate(-28, -196)">
            <g id="编组-6" transform="translate(32, 200)">
                <g id="矩形">
                    <mask id="mask-3" fill="white">
                        <use xlink:href="#path-2"></use>
                    </mask>
                    <path stroke-opacity="0" stroke="#FFFFFF" stroke-width="4" d="M650,-2 C660.49341,-2 669.99341,2.25329488 676.870058,9.12994232 C683.746705,16.0065898 688,25.5065898 688,36 L688,282 L-2,282 L-2,36 C-2,25.5065898 2.25329488,16.0065898 9.12994232,9.12994232 C16.0065898,2.25329488 25.5065898,-2 36,-2 L650,-2 Z"></path>
                    <polygon fill="#D8D8D8" opacity="0.0437593006" mask="url(#mask-3)" points="447 0 734 0 734 280 367 277.771421"></polygon>
                    <polygon fill="#D8D8D8" opacity="0.0408296131" mask="url(#mask-3)" points="512 0 799 0 799 280 432 277.771421"></polygon>
                </g>
                <g id="编组-2" transform="translate(36, 36)">
                    <g id="编组-8" filter="url(#filter-4)">
                        <rect id="矩形" fill="url(#linearGradient-5)" x="0" y="0" width="64" height="64" rx="19.2"></rect>
                        <g id="编组-20" transform="translate(6.4, 6.4)">
                            <circle id="椭圆形" fill="#C11331" cx="25.6" cy="25.6" r="25.6"></circle>
                            <circle id="椭圆形" stroke="#FFFFFF" stroke-width="3.84" fill="#FFFFFF" cx="25.6" cy="25.6" r="17.92"></circle>
                            <path d="M5.76,25.6 L9.6,25.6 L9.6,48.96 C7.47922656,48.96 5.76,47.2407734 5.76,45.12 L5.76,25.6 L5.76,25.6 Z" id="矩形" fill="#FFFFFF"></path>
                            <g id="编组" transform="translate(9.6, 9.6)" fill="#C11331">
                                <path d="M21.7126392,22.1930077 L10.2915521,22.1930077 C11.2261952,27.9523373 13.4349705,31.9979049 16.0020956,32 L16.0041912,32 C18.5734119,32 20.7800917,27.9523373 21.7126392,22.1930077 Z M10.2915521,9.80699227 L21.7126392,9.80699227 C20.7779961,4.04556763 18.5713163,0 16.0020956,0 C13.4349705,0 11.2282908,4.04556763 10.2915521,9.80699227 L10.2915521,9.80699227 Z M11.4336608,0.672515386 C6.84226119,2.04149066 3.10442571,5.39251798 1.24479371,9.80699227 L8.21480026,9.80699227 C8.77642436,6.13434595 9.85985593,2.85138143 11.4336608,0.672515386 Z M7.95075311,20.1272751 C7.81599411,18.7555973 7.74676022,17.3782737 7.74328749,16 C7.74328749,14.613068 7.82082515,13.2261359 7.95494434,11.8706298 L0.555337263,11.8706298 C0.192929795,13.2131137 0.00625960998,14.5969282 0,15.9874296 L0,16.0125704 C0,17.4393086 0.205370007,18.8115752 0.555337263,20.1272751 L7.95075311,20.1272751 L7.95075311,20.1272751 Z M24.0513425,11.8706298 C24.1854617,13.2261359 24.2629993,14.613068 24.2629993,16 C24.2629993,17.386932 24.1854617,18.7759591 24.0513425,20.1293702 L31.4467583,20.1293702 C31.8115114,18.7881225 31.9975328,17.4045987 32,16.0146654 L32,15.9853346 C31.9956122,14.5959464 31.8117737,13.2129413 31.4530452,11.8706298 L24.0513425,11.8706298 L24.0513425,11.8706298 Z M1.24479371,22.1930077 C3.10794587,26.6081168 6.84850968,29.9588334 11.4420432,31.3274846 C9.86823838,29.1465235 8.7827112,25.863559 8.21480026,22.1930077 L1.24479371,22.1930077 Z M30.7635887,9.80699227 C28.9004366,5.3918832 25.1598728,2.04116656 20.5663392,0.672515386 C22.1401441,2.85138143 23.2256713,6.13434595 23.7935822,9.80699227 L30.7635887,9.80699227 L30.7635887,9.80699227 Z M20.5726261,31.3274846 C25.1648301,29.9564587 28.9045077,26.6065359 30.7698756,22.1930077 L23.7977734,22.1930077 C23.2319581,25.863559 22.1485265,29.1465235 20.5726261,31.3274846 L20.5726261,31.3274846 Z M22.1925344,16 C22.1925344,14.5669766 22.1149967,13.19471 21.9787819,11.8706298 L10.0212181,11.8706298 C9.73785094,14.6162551 9.73785094,17.3837449 10.0212181,20.1293702 L21.9787819,20.1293702 C22.1149967,18.8073851 22.1925344,17.4330234 22.1925344,16 L22.1925344,16 Z" id="形状"></path>
                            </g>
                        </g>
                    </g>
                    <text id="Worldpay" font-family="Montserrat-Black, Montserrat" font-size="36" font-weight="800" line-spacing="36" fill="#FFFFFF">
                        <tspan x="88" y="49">Worldpay</tspan>
                    </text>
                </g>
            </g>
        </g>
    </g>
</svg>