<?xml version="1.0" encoding="UTF-8"?>
<svg width="100px" height="100px" viewBox="0 0 100 100" version="1.1" xmlns="http://www.w3.org/2000/svg" xmlns:xlink="http://www.w3.org/1999/xlink">
    <title>编组 3</title>
    <g id="页面-1" stroke="none" stroke-width="1" fill="none" fill-rule="evenodd">
        <g id="首页-卡片申请-确认申办信息-实体卡-身份信息上传" transform="translate(-325, -486)">
            <g id="编组-3" transform="translate(325, 486)">
                <rect id="矩形" x="0" y="0" width="100" height="100"></rect>
                <g id="编组" transform="translate(10, 12)" fill="#FFFFFF" fill-rule="nonzero">
                    <path d="M45.2249408,73.8427173 L11.9968429,73.8427173 C5.382794,73.8427173 0,69.1539168 0,63.3891269 L0,21.4491024 C0,15.6843125 5.382794,10.995512 11.9968429,10.995512 L16.519337,10.995512 C16.9692186,9.99020808 17.6006314,8.27804978 18.0189424,7.14708282 C18.5319653,5.75693594 19.0528808,4.32751938 19.5422257,3.22011424 C20.0710339,2.01060792 20.9629045,0 23.0071034,0 L57.4191002,0 C59.6448303,0 60.6156275,2.27764178 61.0260458,3.25152999 C61.507498,4.38249694 61.973165,5.83547532 62.4309392,7.24133007 C62.7861089,8.34873521 63.3385951,10.0451856 63.7490134,10.995512 L67.9400158,10.995512 C68.7529597,10.9562424 72.7703236,10.9405345 76.3220205,13.9171767 C78.6977111,15.9042228 80,18.5824153 80,21.4412485 L80,42.2698898 C80,43.6600367 78.8713496,44.7831497 77.4743489,44.7831497 C76.0773481,44.7831497 74.9486977,43.6600367 74.9486977,42.2698898 L74.9486977,21.4491024 C74.9486977,20.0903713 74.2778216,18.7866177 73.062352,17.7656059 C70.7971586,15.8649531 68.2004736,16.0141779 68.1689029,16.0220318 L68.0820837,16.0298858 L62.6203631,16.0298858 C60.394633,16.0298858 59.4238358,13.752244 59.0134175,12.7783558 C58.5319653,11.6473888 58.0662983,10.1944104 57.6085241,8.78855569 C57.2533544,7.68115055 56.7008682,5.98470012 56.2904499,5.03437373 L24.2620363,5.03437373 C23.8121547,6.03967768 23.1807419,7.75183599 22.7624309,8.88280294 C22.2494081,10.2729498 21.7284925,11.7023664 21.2391476,12.8097715 C20.7103394,14.0192778 19.8184688,16.0298858 17.7742699,16.0298858 L11.9968429,16.0298858 C10.0710339,16.0298858 8.2715075,16.6503468 6.93764799,17.7734598 C5.72217837,18.7944716 5.05130229,20.0982252 5.05130229,21.4569563 L5.05130229,63.4048348 C5.05130229,64.7635659 5.72217837,66.0673195 6.93764799,67.0883313 C8.27940016,68.2114443 10.0710339,68.8319053 11.9968429,68.8319053 L45.2249408,68.8319053 C46.6219416,68.8319053 47.7505919,69.9550184 47.7505919,71.3451652 C47.7505919,72.7353121 46.6219416,73.8427173 45.2249408,73.8427173 Z" id="路径"></path>
                    <path d="M64.3409629,25.0619135 L56.1325967,25.0619135 C54.7434886,25.0619135 53.6069455,23.9309466 53.6069455,22.5486536 C53.6069455,21.1663607 54.7434886,20.0353937 56.1325967,20.0353937 L64.3409629,20.0353937 C65.730071,20.0353937 66.866614,21.1663607 66.866614,22.5486536 C66.866614,23.9309466 65.730071,25.0619135 64.3409629,25.0619135 Z M39.281768,58.5903713 C30.2288871,58.5903713 22.8650355,51.2626479 22.8650355,42.254182 C22.8650355,33.245716 30.2288871,25.9179927 39.281768,25.9179927 C48.3346488,25.9179927 55.6985004,33.245716 55.6985004,42.254182 C55.6985004,51.2626479 48.3346488,58.5903713 39.281768,58.5903713 Z M39.281768,30.9523664 C33.0149961,30.9523664 27.9163378,36.0260098 27.9163378,42.2620359 C27.9163378,48.498062 33.0149961,53.5717054 39.281768,53.5717054 C45.5485399,53.5717054 50.6471981,48.498062 50.6471981,42.2620359 C50.6471981,36.0260098 45.5485399,30.9523664 39.281768,30.9523664 L39.281768,30.9523664 Z M76.961326,67.0647695 L56.9928966,67.0647695 C55.6037885,67.0647695 54.4672455,65.9338025 54.4672455,64.5515096 C54.4672455,63.1692166 55.6037885,62.0382497 56.9928966,62.0382497 L76.961326,62.0382497 C78.3504341,62.0382497 79.4869771,63.1692166 79.4869771,64.5515096 C79.4869771,65.9338025 78.3504341,67.0647695 76.961326,67.0647695 Z" id="形状"></path>
                    <path d="M69.5027624,54.6162791 L69.5027624,74.4867401 C69.5027624,75.869033 68.3662194,77 66.9771113,77 C65.5880032,77 64.4514601,75.869033 64.4514601,74.4867401 L64.4514601,54.6162791 C64.4514601,53.2339861 65.5880032,52.1030192 66.9771113,52.1030192 C68.3662194,52.1030192 69.5027624,53.2339861 69.5027624,54.6162791 Z" id="路径"></path>
                </g>
            </g>
        </g>
    </g>
</svg>