<?xml version="1.0" encoding="UTF-8"?>
<svg width="37px" height="37px" viewBox="0 0 37 37" version="1.1" xmlns="http://www.w3.org/2000/svg" xmlns:xlink="http://www.w3.org/1999/xlink">
    <title>Frame 1520</title>
    <g id="页面-1" stroke="none" stroke-width="1" fill="none" fill-rule="evenodd">
        <g id="首页-卡片申请-确认申办信息-实体卡" transform="translate(-197, -1836)" fill-rule="nonzero">
            <g id="编组-14" transform="translate(32, 1836)">
                <g id="Frame-1520" transform="translate(165.6036, 0)">
                    <path d="M0,0 C0,20.1011747 16.2952217,36.3963964 36.3963964,36.3963964 L36.3963964,36.3963964 L36.3963964,36.3963964 L36.3963964,0 L0,0 Z" id="矩形" fill="#303133"></path>
                    <g id="icon_delete_white_12" transform="translate(14.5586, 7.2793)" fill="#FFFFFF">
                        <g id="编组" transform="translate(0, 0)">
                            <path d="M6.10386694,7.27928882 L0.243456796,1.41887879 C0.0334878716,1.20890986 -0.048514316,0.902873525 0.0283396414,0.616050643 C0.105193599,0.329227762 0.329227762,0.105193599 0.616050643,0.0283396414 C0.902873525,-0.048514316 1.20890986,0.0334878716 1.41887879,0.243456796 L7.27928882,6.10386694 L13.1396991,0.243456796 C13.349668,0.0334878716 13.6557041,-0.048514316 13.942527,0.0283396414 C14.2293499,0.105193599 14.4533844,0.329227762 14.5302384,0.616050643 C14.6070923,0.902873525 14.5250899,1.20890986 14.315121,1.41887879 L8.45471071,7.27928882 L14.315121,13.1396991 C14.6397048,13.4642829 14.6397048,13.9905371 14.315121,14.315121 C13.9905371,14.6397048 13.4642829,14.6397048 13.1396991,14.315121 L7.27928882,8.45471071 L1.41887879,14.315121 C1.09429497,14.6397048 0.568040637,14.6397048 0.243456823,14.315121 C-0.0811269918,13.9905371 -0.0811270189,13.4642829 0.243456796,13.1396991 L6.10386694,7.27928882 Z" id="路径"></path>
                        </g>
                    </g>
                </g>
            </g>
        </g>
    </g>
</svg>