<?xml version="1.0" encoding="UTF-8"?>
<svg width="202px" height="202px" viewBox="0 0 202 202" version="1.1" xmlns="http://www.w3.org/2000/svg" xmlns:xlink="http://www.w3.org/1999/xlink">
    <title>矩形 2</title>
    <g id="页面-1" stroke="none" stroke-width="1" fill="none" fill-rule="evenodd">
        <g id="首页-卡片申请-确认申办信息-实体卡" transform="translate(-32, -1836)">
            <g id="编组-4" transform="translate(32, 1836)">
                <rect id="矩形" fill="#E5E8F9" x="0" y="0" width="202" height="202"></rect>
                <g id="编组" transform="translate(64.6036, 60.964)" fill="#666666" fill-rule="nonzero">
                    <path d="M63.5251812,13.1997415 L54.3316072,13.1997415 L50.3818563,3.65084806 C49.4646417,1.43304163 47.3268086,0 44.9355139,0 L27.8572789,0 C25.4660675,0 23.3282345,1.43304155 22.4109364,3.65084798 L18.4613523,13.1997414 L9.26761151,13.1997415 C4.15743943,13.1997415 0,17.3751058 0,22.5073105 L0,53.4762148 C0,58.6084195 4.15743943,62.7837838 9.26761151,62.7837838 L63.5251812,62.7837838 C68.6353533,62.7837838 72.7927928,58.6084195 72.7927928,53.4762148 L72.7927928,22.5073105 C72.7927928,17.3750221 68.6353534,13.1997415 63.5251812,13.1997415 Z M69.4228356,53.476131 C69.4228356,56.742049 66.7770786,59.3991295 63.5251812,59.3991295 L9.26761151,59.3991295 C6.01563075,59.3991295 3.37004052,56.742049 3.37004052,53.476131 L3.37004052,22.5073105 C3.37004052,19.2413925 6.01563075,16.584312 9.26761151,16.584312 L19.585922,16.584312 C20.2668503,16.584312 20.880828,16.1727542 21.1420436,15.5411408 L25.5230964,4.94907611 C25.9162123,3.99868336 26.8324264,3.3844868 27.8572789,3.3844868 L44.9355139,3.3844868 C45.9603664,3.3844868 46.8765805,3.99859965 47.2695296,4.9491599 L51.6507491,15.5412246 C51.9120481,16.1726705 52.5260258,16.584312 53.2069541,16.584312 L63.5252646,16.584312 C66.777162,16.584312 69.4228356,19.2413925 69.4228356,22.5073105 L69.4228356,53.476131 L69.4228356,53.476131 Z" id="形状"></path>
                    <path d="M36.3963547,18.1925273 C26.9578232,18.1925273 19.2789332,25.9044413 19.2789332,35.3837509 C19.2789332,44.8630604 26.9577399,52.5749745 36.3963547,52.5749745 C45.8349695,52.5749745 53.5137762,44.8630604 53.5137762,35.3837509 C53.5137762,25.9044413 45.8349696,18.1925273 36.3963547,18.1925273 Z M36.3963547,49.190404 C28.8160145,49.190404 22.6489737,42.9966901 22.6489737,35.3837509 C22.6489737,27.7708117 28.8160145,21.5770978 36.3963547,21.5770978 C43.9766115,21.5770978 50.1437357,27.7708117 50.1437357,35.3837509 C50.1437357,42.9966901 43.9766948,49.190404 36.3963547,49.190404 Z" id="形状"></path>
                    <path d="M31.7260722,42.3428868 C29.4186532,40.7773764 28.0411221,38.1758123 28.0411221,35.3836672 C28.0411221,34.4491004 27.2867399,33.6913819 26.3561018,33.6913819 C25.4254637,33.6913819 24.6710815,34.4491004 24.6710815,35.3836672 C24.6710815,39.3015463 26.6031437,42.9514732 29.8394498,45.147341 C30.1286796,45.3435321 30.4565957,45.4375666 30.7812603,45.4375666 C31.3221176,45.4375666 31.8534701,45.1764807 32.1789683,44.6924084 C32.6998988,43.9180268 32.4971294,42.8661471 31.7260722,42.3428868 Z" id="路径"></path>
                    <path d="M16.0423769,20.750298 L8.96529171,20.750298 C8.03465358,20.750298 7.28027145,21.5079327 7.28027145,22.4425833 C7.28027145,23.3772339 8.03465358,24.1348685 8.96529171,24.1348685 L16.0423769,24.1348685 C16.9730151,24.1348685 17.7273972,23.3772339 17.7273972,22.4425833 C17.7273972,21.5079327 16.9730151,20.750298 16.0423769,20.750298 Z" id="路径"></path>
                </g>
                <text id="图片" font-family="PingFangSC-Regular, PingFang SC" font-size="21.8378378" font-weight="normal" line-spacing="21.8378378" fill="#666666">
                    <tspan x="79.1621622" y="157.666667">图片</tspan>
                </text>
            </g>
        </g>
    </g>
</svg>