<?xml version="1.0" encoding="UTF-8"?>
<svg width="64px" height="64px" viewBox="0 0 64 64" version="1.1" xmlns="http://www.w3.org/2000/svg" xmlns:xlink="http://www.w3.org/1999/xlink">
    <title>编组</title>
    <g id="页面-1" stroke="none" stroke-width="1" fill="none" fill-rule="evenodd">
        <g id="首页-钱包-充值" transform="translate(-56, -274)" fill-rule="nonzero">
            <g id="编组-4" transform="translate(32, 208)">
                <g id="编组" transform="translate(24, 66)">
                    <path d="M64,32 C64,49.6736 49.6736,64 32,64 C14.3270401,64 0,49.6736 0,32 C0,14.32672 14.32704,0 32,0 C49.6736,0 64,14.32672 64,32" id="路径" fill="#1BA27A"></path>
                    <polygon id="路径" fill="#FFFFFF" points="47.01856 16.13632 16.71776 16.13632 16.71776 23.45152 28.21056 23.45152 28.21056 34.20352 35.52576 34.20352 35.52576 23.45152 47.01856 23.45152"></polygon>
                    <path d="M31.9376,35.3488 C22.4304,35.3488 14.72256,33.84416 14.72256,31.98784 C14.72256,30.13184 22.43008,28.62688 31.9376,28.62688 C41.4448,28.62688 49.15232,30.13184 49.15232,31.98784 C49.15232,33.84416 41.4448,35.3488 31.9376,35.3488 M51.2672,32.54816 C51.2672,30.15456 42.61312,28.2144 31.9376,28.2144 C21.2624,28.2144 12.60768,30.15456 12.60768,32.54816 C12.60768,34.656 19.3184,36.41216 28.21088,36.80128 L28.21088,52.23616 L35.52544,52.23616 L35.52544,36.80736 C44.4864,36.4304 51.2672,34.66688 51.2672,32.54816" id="形状" fill="#FFFFFF"></path>
                </g>
            </g>
        </g>
    </g>
</svg>