<?xml version="1.0" encoding="UTF-8"?>
<svg width="48px" height="36px" viewBox="0 0 48 36" version="1.1" xmlns="http://www.w3.org/2000/svg" xmlns:xlink="http://www.w3.org/1999/xlink">
    <title>编组 9</title>
    <g id="页面-1" stroke="none" stroke-width="1" fill="none" fill-rule="evenodd">
        <g id="首页" transform="translate(-108, -904)">
            <g id="编组-9" transform="translate(108, 904)">
                <rect id="矩形" stroke="#FFFFFF" stroke-width="3" x="1.5" y="1.5" width="45" height="33" rx="8"></rect>
                <path d="M24,8.5 C24.8284271,8.5 25.5,9.17157288 25.5,10 L25.5,17 L32.5,17 C33.3284271,17 34,17.6715729 34,18.5 C34,19.3284271 33.3284271,20 32.5,20 L25.5,20 L25.5,27 C25.5,27.8284271 24.8284271,28.5 24,28.5 C23.1715729,28.5 22.5,27.8284271 22.5,27 L22.5,20 L15.5,20 C14.6715729,20 14,19.3284271 14,18.5 C14,17.6715729 14.6715729,17 15.5,17 L22.5,17 L22.5,10 C22.5,9.17157288 23.1715729,8.5 24,8.5 Z" id="形状结合" fill="#FFFFFF"></path>
            </g>
        </g>
    </g>
</svg>