<?xml version="1.0" encoding="UTF-8"?>
<svg width="48px" height="48px" viewBox="0 0 48 48" version="1.1" xmlns="http://www.w3.org/2000/svg" xmlns:xlink="http://www.w3.org/1999/xlink">
    <title>编组 14</title>
    <g id="页面-1" stroke="none" stroke-width="1" fill="none" fill-rule="evenodd">
        <g id="首页-卡片列表--U卡-选择充值方式" transform="translate(-239, -1340)">
            <g id="编组-17" transform="translate(0, 1142)">
                <g id="编组-16" transform="translate(32, 162)">
                    <g id="编组-14" transform="translate(207, 36)">
                        <rect id="矩形" x="0" y="0" width="48" height="48"></rect>
                        <g id="编组" transform="translate(2.6667, 3.5556)" fill="#FFFFFF" fill-rule="nonzero">
                            <path d="M42.6666667,36.6442534 C42.6666667,37.2350818 42.5648556,37.7870399 42.3612335,38.3001277 C42.1576114,38.8132155 41.8678414,39.2641108 41.4919236,39.6528137 C41.1160059,40.0415166 40.6774351,40.3447049 40.1762115,40.5623785 C39.6749878,40.7800521 39.1267744,40.8888889 38.5315712,40.8888889 L4.41703377,40.8888889 C3.82183064,40.8888889 3.25795399,40.7800521 2.72540382,40.5623785 C2.19285365,40.3447049 1.72295644,40.0415166 1.31571219,39.6528137 C0.908467939,39.2641108 0.587371512,38.8132155 0.352422907,38.3001277 C0.117474302,37.7870399 0,37.2350818 0,36.6442534 L0,13.3687247 C0,12.1870679 0.415075869,11.1842145 1.24522761,10.3601643 C2.07537934,9.53611423 3.08565835,9.12408917 4.27606461,9.12408917 L38.3906021,9.12408917 C39.5810083,9.12408917 40.5912873,9.53611423 41.4214391,10.3601643 C42.2515908,11.1842145 42.6666667,12.1870679 42.6666667,13.3687247 L42.6666667,19.7123557 L32,19.7123557 C30.8095937,19.7123557 29.7993147,20.1166067 28.969163,20.9251087 C28.1390113,21.7336107 27.7239354,22.7286901 27.7239354,23.9103469 C27.7552619,24.7188489 27.9275575,25.4340622 28.2408223,26.0559868 C28.4914342,26.5846227 28.90651,27.0666143 29.4860499,27.5019615 C30.0655898,27.9373088 30.9035732,28.1549824 32,28.1549824 L42.6666667,28.1549824 L42.6666667,36.6442534 L42.6666667,36.6442534 Z M36.2760646,6.97844925 L14.9427313,6.97844925 C16.6343612,6.10775479 18.2320117,5.26815656 19.7356828,4.45965456 C21.051395,3.77553748 22.351444,3.0914204 23.6358297,2.40730333 C24.9202154,1.72318625 25.9226628,1.19455033 26.6431718,0.821395559 C27.7395986,0.230567174 28.7185512,-0.0415248447 29.5800294,0.00511950141 C30.4415076,0.0517638475 31.1698483,0.199470944 31.7650514,0.44824079 C32.454234,0.790299328 33.0494371,1.24119467 33.5506608,1.80092683 L36.2760646,6.97844925 Z M29.8854626,23.9103469 C29.8854626,23.3195185 30.0890847,22.8219788 30.4963289,22.4177278 C30.9035732,22.0134768 31.4047969,21.8113513 32,21.8113513 C32.5952031,21.8113513 33.0964268,22.0134768 33.5036711,22.4177278 C33.9109153,22.8219788 34.1145374,23.3195185 34.1145374,23.9103469 C34.1145374,24.5011753 33.9109153,25.006489 33.5036711,25.4262881 C33.0964268,25.8460873 32.5952031,26.0559868 32,26.0559868 C31.4047969,26.0559868 30.9035732,25.8460873 30.4963289,25.4262881 C30.0890847,25.006489 29.8854626,24.5011753 29.8854626,23.9103469 Z" id="形状"></path>
                        </g>
                    </g>
                </g>
            </g>
        </g>
    </g>
</svg>