<?xml version="1.0" encoding="UTF-8"?>
<svg width="120px" height="120px" viewBox="0 0 120 120" version="1.1" xmlns="http://www.w3.org/2000/svg" xmlns:xlink="http://www.w3.org/1999/xlink">
    <title>编组 9</title>
    <defs>
        <linearGradient x1="50%" y1="0%" x2="51.4619146%" y2="100%" id="linearGradient-1">
            <stop stop-color="#36364A" stop-opacity="0.924388112" offset="0%"></stop>
            <stop stop-color="#666681" stop-opacity="0.355659965" offset="100%"></stop>
        </linearGradient>
        <filter x="-14.6%" y="-10.9%" width="129.2%" height="130.4%" filterUnits="objectBoundingBox" id="filter-2">
            <feOffset dx="0" dy="2" in="SourceAlpha" result="shadowOffsetOuter1"></feOffset>
            <feGaussianBlur stdDeviation="2" in="shadowOffsetOuter1" result="shadowBlurOuter1"></feGaussianBlur>
            <feColorMatrix values="0 0 0 0 0   0 0 0 0 0   0 0 0 0 0  0 0 0 0.5 0" type="matrix" in="shadowBlurOuter1" result="shadowMatrixOuter1"></feColorMatrix>
            <feMerge>
                <feMergeNode in="shadowMatrixOuter1"></feMergeNode>
                <feMergeNode in="SourceGraphic"></feMergeNode>
            </feMerge>
        </filter>
    </defs>
    <g id="页面-1" stroke="none" stroke-width="1" fill="none" fill-rule="evenodd">
        <g id="首页-卡片列表--U卡" transform="translate(-550, -784)">
            <g id="编组-10" transform="translate(32, 760)">
                <g id="编组-9" transform="translate(518, 24)">
                    <rect id="矩形" fill="url(#linearGradient-1)" x="0" y="0" width="120" height="120" rx="36"></rect>
                    <g id="编组" filter="url(#filter-2)" transform="translate(36, 37)" fill="#FFFFFF" fill-rule="nonzero">
                        <path d="M48,41.2247851 C48,41.889467 47.8854626,42.5104199 47.6563877,43.0876436 C47.4273128,43.6648674 47.1013216,44.1721247 46.6784141,44.6094154 C46.2555066,45.0467062 45.7621145,45.387793 45.1982379,45.6326758 C44.6343612,45.8775586 44.0176211,46 43.3480176,46 L4.969163,46 C4.29955947,46 3.66519824,45.8775586 3.0660793,45.6326758 C2.46696035,45.387793 1.93832599,45.0467062 1.48017621,44.6094154 C1.02202643,44.1721247 0.660792952,43.6648674 0.396475771,43.0876436 C0.13215859,42.5104199 0,41.889467 0,41.2247851 L0,15.0398153 C0,13.7104514 0.466960352,12.5822413 1.40088106,11.6551849 C2.33480176,10.7281285 3.47136564,10.2646003 4.81057269,10.2646003 L43.1894273,10.2646003 C44.5286344,10.2646003 45.6651982,10.7281285 46.5991189,11.6551849 C47.5330396,12.5822413 48,13.7104514 48,15.0398153 L48,22.1764002 L36,22.1764002 C34.660793,22.1764002 33.5242291,22.6311826 32.5903084,23.5407473 C31.6563877,24.4503121 31.1894273,25.5697764 31.1894273,26.8991403 C31.2246696,27.808705 31.4185022,28.61332 31.7709251,29.3129852 C32.0528634,29.9077006 32.5198238,30.4499411 33.1718062,30.9397067 C33.8237885,31.4294724 34.7665198,31.6743552 36,31.6743552 L48,31.6743552 L48,41.2247851 L48,41.2247851 Z M40.8105727,7.8507554 L16.8105727,7.8507554 C18.7136564,6.87122414 20.5110132,5.92667613 22.2026432,5.01711138 C23.6828194,4.24747967 25.1453744,3.47784795 26.5903084,2.70821624 C28.0352423,1.93858453 29.1629956,1.34386912 29.9735683,0.924070004 C31.2070485,0.259388071 32.30837,-0.0467154503 33.277533,0.00575943908 C34.246696,0.0582343285 35.0660793,0.224404812 35.7356828,0.504270888 C36.5110132,0.889086744 37.1806167,1.39634401 37.7444934,2.02604268 L40.8105727,7.8507554 Z M33.6211454,26.8991403 C33.6211454,26.2344583 33.8502203,25.6747262 34.30837,25.2199438 C34.7665198,24.7651614 35.3303965,24.5377702 36,24.5377702 C36.6696035,24.5377702 37.2334802,24.7651614 37.69163,25.2199438 C38.1497797,25.6747262 38.3788546,26.2344583 38.3788546,26.8991403 C38.3788546,27.5638222 38.1497797,28.1323002 37.69163,28.6045742 C37.2334802,29.0768482 36.6696035,29.3129852 36,29.3129852 C35.3303965,29.3129852 34.7665198,29.0768482 34.30837,28.6045742 C33.8502203,28.1323002 33.6211454,27.5638222 33.6211454,26.8991403 Z" id="形状"></path>
                    </g>
                </g>
            </g>
        </g>
    </g>
</svg>