<?xml version="1.0" encoding="UTF-8"?>
<svg width="750px" height="1050px" viewBox="0 0 750 1050" version="1.1" xmlns="http://www.w3.org/2000/svg" xmlns:xlink="http://www.w3.org/1999/xlink">
    <title>编组 4</title>
    <defs>
        <radialGradient cx="50%" cy="50%" fx="50%" fy="50%" r="50%" id="radialGradient-1">
            <stop stop-color="#D8D8D8" offset="0%"></stop>
            <stop stop-color="#FFFFFF" stop-opacity="0.19340035" offset="100%"></stop>
        </radialGradient>
        <filter x="-20.0%" y="-20.0%" width="140.0%" height="140.0%" filterUnits="objectBoundingBox" id="filter-2">
            <feGaussianBlur stdDeviation="50" in="SourceGraphic"></feGaussianBlur>
        </filter>
        <rect id="path-3" x="0" y="0" width="750" height="750"></rect>
        <filter x="-1.8%" y="-2.8%" width="104.4%" height="110.3%" filterUnits="objectBoundingBox" id="filter-5">
            <feOffset dx="10" dy="10" in="SourceAlpha" result="shadowOffsetOuter1"></feOffset>
            <feGaussianBlur stdDeviation="8" in="shadowOffsetOuter1" result="shadowBlurOuter1"></feGaussianBlur>
            <feColorMatrix values="0 0 0 0 0   0 0 0 0 0   0 0 0 0 0  0 0 0 0.620028409 0" type="matrix" in="shadowBlurOuter1" result="shadowMatrixOuter1"></feColorMatrix>
            <feMerge>
                <feMergeNode in="shadowMatrixOuter1"></feMergeNode>
                <feMergeNode in="SourceGraphic"></feMergeNode>
            </feMerge>
        </filter>
        <linearGradient x1="0%" y1="26.1926004%" x2="59.5209411%" y2="77.1717599%" id="linearGradient-6">
            <stop stop-color="#C11331" offset="0%"></stop>
            <stop stop-color="#151818" offset="100%"></stop>
        </linearGradient>
        <rect id="path-7" x="0" y="0" width="610" height="430" rx="36"></rect>
        <filter x="-0.2%" y="-0.3%" width="100.5%" height="100.7%" filterUnits="objectBoundingBox" id="filter-8">
            <feOffset dx="0" dy="-3" in="SourceAlpha" result="shadowOffsetInner1"></feOffset>
            <feComposite in="shadowOffsetInner1" in2="SourceAlpha" operator="arithmetic" k2="-1" k3="1" result="shadowInnerInner1"></feComposite>
            <feColorMatrix values="0 0 0 0 0.444491621   0 0 0 0 0.444491621   0 0 0 0 0.444491621  0 0 0 0.5 0" type="matrix" in="shadowInnerInner1" result="shadowMatrixInner1"></feColorMatrix>
            <feOffset dx="3" dy="0" in="SourceAlpha" result="shadowOffsetInner2"></feOffset>
            <feComposite in="shadowOffsetInner2" in2="SourceAlpha" operator="arithmetic" k2="-1" k3="1" result="shadowInnerInner2"></feComposite>
            <feColorMatrix values="0 0 0 0 1   0 0 0 0 1   0 0 0 0 1  0 0 0 0.13243007 0" type="matrix" in="shadowInnerInner2" result="shadowMatrixInner2"></feColorMatrix>
            <feMerge>
                <feMergeNode in="shadowMatrixInner1"></feMergeNode>
                <feMergeNode in="shadowMatrixInner2"></feMergeNode>
            </feMerge>
        </filter>
        <filter x="-5.5%" y="-3.9%" width="110.9%" height="110.9%" filterUnits="objectBoundingBox" id="filter-9">
            <feOffset dx="0" dy="1" in="SourceAlpha" result="shadowOffsetOuter1"></feOffset>
            <feGaussianBlur stdDeviation="1" in="shadowOffsetOuter1" result="shadowBlurOuter1"></feGaussianBlur>
            <feColorMatrix values="0 0 0 0 0.47993483   0 0 0 0 0.554863338   0 0 0 0 0.707002944  0 0 0 0.5 0" type="matrix" in="shadowBlurOuter1" result="shadowMatrixOuter1"></feColorMatrix>
            <feMerge>
                <feMergeNode in="shadowMatrixOuter1"></feMergeNode>
                <feMergeNode in="SourceGraphic"></feMergeNode>
            </feMerge>
        </filter>
        <linearGradient x1="36.8821049%" y1="10.7976296%" x2="61.6707306%" y2="100%" id="linearGradient-10">
            <stop stop-color="#FFFFFF" offset="0%"></stop>
            <stop stop-color="#EFF3F8" offset="100%"></stop>
        </linearGradient>
        <linearGradient x1="1.46502992e-13%" y1="48.9105181%" x2="83.269743%" y2="50.391786%" id="linearGradient-11">
            <stop stop-color="#D8DAE1" offset="0%"></stop>
            <stop stop-color="#B0B3BF" offset="100%"></stop>
            <stop stop-color="#B0B3BF" offset="100%"></stop>
        </linearGradient>
        <linearGradient x1="0%" y1="26.1926004%" x2="97.761333%" y2="72.1682203%" id="linearGradient-12">
            <stop stop-color="#D2CCB3" offset="0%"></stop>
            <stop stop-color="#8197B4" offset="100%"></stop>
        </linearGradient>
        <rect id="path-13" x="0" y="0" width="610" height="430" rx="36"></rect>
        <filter x="-0.3%" y="-0.5%" width="100.7%" height="100.9%" filterUnits="objectBoundingBox" id="filter-14">
            <feOffset dx="0" dy="-4" in="SourceAlpha" result="shadowOffsetInner1"></feOffset>
            <feComposite in="shadowOffsetInner1" in2="SourceAlpha" operator="arithmetic" k2="-1" k3="1" result="shadowInnerInner1"></feComposite>
            <feColorMatrix values="0 0 0 0 1   0 0 0 0 1   0 0 0 0 1  0 0 0 0.395022946 0" type="matrix" in="shadowInnerInner1"></feColorMatrix>
        </filter>
        <linearGradient x1="6.28772064%" y1="24.795%" x2="122.990471%" y2="85.3076013%" id="linearGradient-15">
            <stop stop-color="#FFD2A0" offset="0%"></stop>
            <stop stop-color="#F59D1C" offset="100%"></stop>
        </linearGradient>
        <linearGradient x1="0%" y1="50%" x2="99.6749344%" y2="50%" id="linearGradient-16">
            <stop stop-color="#FFFFFF" offset="0%"></stop>
            <stop stop-color="#FFFFFF" offset="100%"></stop>
        </linearGradient>
        <linearGradient x1="4.54611056%" y1="50%" x2="110.297711%" y2="63.844368%" id="linearGradient-17">
            <stop stop-color="#FFBF25" offset="0%"></stop>
            <stop stop-color="#FC5252" offset="100%"></stop>
        </linearGradient>
        <path d="M585.5,184 L694,184 C698.418278,184 702,187.581722 702,192 L702,244 C702,248.418278 698.418278,252 694,252 L491.413475,252 C486.995197,252 483.413475,248.418278 483.413475,244 C483.413475,241.973253 484.182734,240.022049 485.56584,238.54059 L571.652365,146.332356 C574.667514,143.102796 579.729851,142.928982 582.95941,145.944131 C584.579967,147.457099 585.5,149.574725 585.5,151.791766 L585.5,184 L585.5,184 Z" id="path-18"></path>
        <filter x="-1.6%" y="-1.4%" width="118.2%" height="136.3%" filterUnits="objectBoundingBox" id="filter-19">
            <feOffset dx="12" dy="16" in="SourceAlpha" result="shadowOffsetOuter1"></feOffset>
            <feGaussianBlur stdDeviation="6" in="shadowOffsetOuter1" result="shadowBlurOuter1"></feGaussianBlur>
            <feColorMatrix values="0 0 0 0 0   0 0 0 0 0   0 0 0 0 0  0 0 0 0.5 0" type="matrix" in="shadowBlurOuter1"></feColorMatrix>
        </filter>
        <linearGradient x1="-2.32437704%" y1="48.5710923%" x2="107.108709%" y2="57.7163469%" id="linearGradient-20">
            <stop stop-color="#FF9122" offset="0%"></stop>
            <stop stop-color="#FF0000" offset="100%"></stop>
        </linearGradient>
        <path d="M679.5,336.5 L788,336.5 C792.418278,336.5 796,340.081722 796,344.5 L796,396.5 C796,400.918278 792.418278,404.5 788,404.5 L585.413475,404.5 C580.995197,404.5 577.413475,400.918278 577.413475,396.5 C577.413475,394.473253 578.182734,392.522049 579.56584,391.04059 L665.652365,298.832356 C668.667514,295.602796 673.729851,295.428982 676.95941,298.444131 C678.579967,299.957099 679.5,302.074725 679.5,304.291766 L679.5,336.5 L679.5,336.5 Z" id="path-21"></path>
        <filter x="-11.4%" y="-23.4%" width="117.3%" height="134.6%" filterUnits="objectBoundingBox" id="filter-22">
            <feOffset dx="-12" dy="-16" in="SourceAlpha" result="shadowOffsetOuter1"></feOffset>
            <feGaussianBlur stdDeviation="5.5" in="shadowOffsetOuter1" result="shadowBlurOuter1"></feGaussianBlur>
            <feColorMatrix values="0 0 0 0 0   0 0 0 0 0   0 0 0 0 0  0 0 0 0.5 0" type="matrix" in="shadowBlurOuter1"></feColorMatrix>
        </filter>
    </defs>
    <g id="页面-1" stroke="none" stroke-width="1" fill="none" fill-rule="evenodd">
        <g id="引导页" transform="translate(0, -98)">
            <g id="编组-4" transform="translate(0, 248)">
                <circle id="椭圆形" fill="url(#radialGradient-1)" opacity="0.082984561" filter="url(#filter-2)" cx="375" cy="375" r="375"></circle>
                <mask id="mask-4" fill="white">
                    <use xlink:href="#path-3"></use>
                </mask>
                <use id="蒙版" fill-opacity="0" fill="#6D5E5E" xlink:href="#path-3"></use>
                <g filter="url(#filter-5)" mask="url(#mask-4)">
                    <g transform="translate(360, 362.5) rotate(-25) translate(-360, -362.5)translate(-304, 82)">
                        <g transform="translate(0, 0)">
                            <g id="编组-2" transform="translate(718, 131)">
                                <g id="矩形">
                                    <use fill="url(#linearGradient-6)" fill-rule="evenodd" xlink:href="#path-7"></use>
                                    <use fill="black" fill-opacity="1" filter="url(#filter-8)" xlink:href="#path-7"></use>
                                </g>
                                <g opacity="0.498837426" transform="translate(40, 40)">
                                    <g id="编组-8" filter="url(#filter-9)">
                                        <rect id="矩形" fill="url(#linearGradient-10)" x="0" y="0" width="64" height="64" rx="19.2"></rect>
                                        <g id="编组-20" transform="translate(6.4, 6.4)">
                                            <circle id="椭圆形" fill="#B2142F" cx="25.6" cy="25.6" r="25.6"></circle>
                                            <circle id="椭圆形" stroke="#FFFFFF" stroke-width="3.84" fill="#FFFFFF" cx="25.6" cy="25.6" r="17.92"></circle>
                                            <path d="M5.76,25.6 L9.6,25.6 L9.6,48.96 C7.47922656,48.96 5.76,47.2407734 5.76,45.12 L5.76,25.6 L5.76,25.6 Z" id="矩形" fill="#FFFFFF"></path>
                                            <g id="编组" transform="translate(9.6, 9.6)" fill="#B3132F">
                                                <path d="M21.7126392,22.1930077 L10.2915521,22.1930077 C11.2261952,27.9523373 13.4349705,31.9979049 16.0020956,32 L16.0041912,32 C18.5734119,32 20.7800917,27.9523373 21.7126392,22.1930077 Z M10.2915521,9.80699227 L21.7126392,9.80699227 C20.7779961,4.04556763 18.5713163,0 16.0020956,0 C13.4349705,0 11.2282908,4.04556763 10.2915521,9.80699227 L10.2915521,9.80699227 Z M11.4336608,0.672515386 C6.84226119,2.04149066 3.10442571,5.39251798 1.24479371,9.80699227 L8.21480026,9.80699227 C8.77642436,6.13434595 9.85985593,2.85138143 11.4336608,0.672515386 Z M7.95075311,20.1272751 C7.81599411,18.7555973 7.74676022,17.3782737 7.74328749,16 C7.74328749,14.613068 7.82082515,13.2261359 7.95494434,11.8706298 L0.555337263,11.8706298 C0.192929795,13.2131137 0.00625960998,14.5969282 0,15.9874296 L0,16.0125704 C0,17.4393086 0.205370007,18.8115752 0.555337263,20.1272751 L7.95075311,20.1272751 L7.95075311,20.1272751 Z M24.0513425,11.8706298 C24.1854617,13.2261359 24.2629993,14.613068 24.2629993,16 C24.2629993,17.386932 24.1854617,18.7759591 24.0513425,20.1293702 L31.4467583,20.1293702 C31.8115114,18.7881225 31.9975328,17.4045987 32,16.0146654 L32,15.9853346 C31.9956122,14.5959464 31.8117737,13.2129413 31.4530452,11.8706298 L24.0513425,11.8706298 L24.0513425,11.8706298 Z M1.24479371,22.1930077 C3.10794587,26.6081168 6.84850968,29.9588334 11.4420432,31.3274846 C9.86823838,29.1465235 8.7827112,25.863559 8.21480026,22.1930077 L1.24479371,22.1930077 Z M30.7635887,9.80699227 C28.9004366,5.3918832 25.1598728,2.04116656 20.5663392,0.672515386 C22.1401441,2.85138143 23.2256713,6.13434595 23.7935822,9.80699227 L30.7635887,9.80699227 L30.7635887,9.80699227 Z M20.5726261,31.3274846 C25.1648301,29.9564587 28.9045077,26.6065359 30.7698756,22.1930077 L23.7977734,22.1930077 C23.2319581,25.863559 22.1485265,29.1465235 20.5726261,31.3274846 L20.5726261,31.3274846 Z M22.1925344,16 C22.1925344,14.5669766 22.1149967,13.19471 21.9787819,11.8706298 L10.0212181,11.8706298 C9.73785094,14.6162551 9.73785094,17.3837449 10.0212181,20.1293702 L21.9787819,20.1293702 C22.1149967,18.8073851 22.1925344,17.4330234 22.1925344,16 L22.1925344,16 Z" id="形状"></path>
                                            </g>
                                        </g>
                                    </g>
                                    <text id="Worldpay" font-family="Montserrat-Black, Montserrat" font-size="36" font-weight="800" line-spacing="36" fill="#FFFFFF">
                                        <tspan x="88" y="49">Worldpay</tspan>
                                    </text>
                                </g>
                                <rect id="矩形" fill="url(#linearGradient-11)" opacity="0.0975399926" x="0" y="231" width="610" height="99"></rect>
                            </g>
                            <text id="8888-8888-8888-8888" opacity="0.502208891" font-family="PingFangSC-Semibold, PingFang SC" font-size="36" font-weight="500" line-spacing="36" fill="#FFFFFF">
                                <tspan x="758" y="523">8888  8888 8888 8888</tspan>
                            </text>
                            <g id="编组-3" transform="translate(-0, -0)">
                                <g id="矩形">
                                    <use fill="url(#linearGradient-12)" fill-rule="evenodd" xlink:href="#path-13"></use>
                                    <use fill="black" fill-opacity="1" filter="url(#filter-14)" xlink:href="#path-13"></use>
                                </g>
                                <text id="8888-8888-8888-8888" opacity="0.555036272" font-family="PingFangSC-Semibold, PingFang SC" font-size="36" font-weight="500" line-spacing="36" fill="#FFFFFF">
                                    <tspan x="176" y="392">8888  8888 8888 8888</tspan>
                                </text>
                                <g id="编组" transform="translate(470, 40)" fill="url(#linearGradient-15)" fill-rule="nonzero">
                                    <path d="M91.1764706,0 C96.0495713,0 100,3.97347285 100,8.875 L100,17.75 L70.5882353,17.75 L70.5882353,71 L29.4117647,71 L29.4117647,0 L91.1764706,0 Z M27.9411764,53.25 L27.9411764,71 L8.82352941,71 C3.95042868,71 0,67.0265272 0,62.125 L0,53.25 L27.9411764,53.25 Z M100,53.25 L100,62.125 C100,67.0265272 96.0495713,71 91.1764706,71 L72.0588235,71 L72.0588235,53.25 L100,53.25 Z M100,36.9791666 L100,51.7708334 L72.0588235,51.7708334 L72.0588235,36.9791666 L100,36.9791666 Z M27.9411764,36.9791666 L27.9411764,51.7708334 L0,51.7708334 L0,36.9791666 L27.9411764,36.9791666 Z M100,19.2291666 L100,35.5 L72.0588235,35.5 L72.0588235,19.2291666 L100,19.2291666 L100,19.2291666 Z M27.9411764,19.2291666 L27.9411764,35.5 L0,35.5 L0,19.2291666 L27.9411764,19.2291666 L27.9411764,19.2291666 Z M27.9411764,0 L27.9411764,17.75 L0,17.75 L0,8.875 C0,3.97347285 3.95042868,0 8.82352941,0 L27.9411764,0 L27.9411764,0 Z" id="形状"></path>
                                </g>
                                <rect id="矩形" fill="url(#linearGradient-16)" opacity="0.1" x="0" y="231" width="610" height="99"></rect>
                            </g>
                            <g id="矩形">
                                <use fill="black" fill-opacity="1" filter="url(#filter-19)" xlink:href="#path-18"></use>
                                <use fill="url(#linearGradient-17)" fill-rule="evenodd" xlink:href="#path-18"></use>
                            </g>
                            <g id="矩形" transform="translate(681.5, 344.25) scale(-1, -1) translate(-681.5, -344.25)">
                                <use fill="black" fill-opacity="1" filter="url(#filter-22)" xlink:href="#path-21"></use>
                                <use fill="url(#linearGradient-20)" fill-rule="evenodd" xlink:href="#path-21"></use>
                            </g>
                        </g>
                    </g>
                </g>
            </g>
        </g>
    </g>
</svg>